<svg xmlns="http://www.w3.org/2000/svg" viewBox="0 0 111.89 111.88"><defs><style>.cls-1{fill:#1c0e0e;fill-rule:evenodd;}</style></defs><title>Kvalite Dark</title><g id="Layer_2" data-name="Layer 2"><g id="Kvalite"><path id="Kvalite_Dark" data-name="Kvalite Dark" class="cls-1" d="M55.94,0a55.95,55.95,0,1,0,55.94,55.94A55.94,55.94,0,0,0,55.94,0ZM77.21,103.29l-.53.22-2.34-8.57h0c-.23-3-.29-9.39,1.26-21.21C78,55.5,77,56.94,75.6,51.67c-.1-.36-.22-.75-.37-1.16l.24-.07,1.63-22.9a2.12,2.12,0,0,0-2.64-2.21,5.78,5.78,0,0,0-4.2,3.77l-.25.13c-1.33-14.14-2.3-15.68-2.3-15.68-7.65-1.44-6.29,12.54-6.29,12.54l0,.23L54.53,15.89a1.74,1.74,0,0,0-2.87,0l-.92,1.29c-2.39,3.36,0,7.68,0,7.68l11.7,17.92c2.43,3.35,5.08,7.72,5.47,8.37l-5.47-8.37A16.58,16.58,0,0,0,59.1,39c-2.39-1.44-13.63.24-16.5,1.2s-8.13,8.15-8.13,8.15c5.26,7.19,12.43-.48,12.43-.48,7.65-1.44,7.65,1.44,8.61,1.92s4.78,7.67,4.78,9.11-1.91,6.72-1.91,6.72C55,68.93,47.86,70.37,47.86,70.37A27.6,27.6,0,0,1,37.34,60.3a26.55,26.55,0,0,0-.48-8.15,3.9,3.9,0,0,0-1.66-2.21,3.39,3.39,0,0,0-5.08,1.89,37.91,37.91,0,0,0-1.86,9.91c0,5.28,4.78,10.55,10,15.35,3.73,3.4,8.42,12.34,10.83,17.26l6,13.46a51.34,51.34,0,0,1-20.22-4.44,51.91,51.91,0,1,1,42.33-.08Z"/></g></g></svg>