<?xml version="1.0" encoding="iso-8859-1"?>
<!-- Generator: Adobe Illustrator 16.0.4, SVG Export Plug-In . SVG Version: 6.00 Build 0)  -->
<!DOCTYPE svg PUBLIC "-//W3C//DTD SVG 1.1//EN" "http://www.w3.org/Graphics/SVG/1.1/DTD/svg11.dtd">
<svg version="1.1" id="Layer_1" xmlns="http://www.w3.org/2000/svg" xmlns:xlink="http://www.w3.org/1999/xlink" x="0px" y="0px"
	 width="1024px" height="500px" viewBox="0 0 1024 500" style="enable-background:new 0 0 1024 500;" xml:space="preserve">
<title>Ekologisk Dark</title>
<path d="M539.099,271.696c24.509-15.58,80.356-90.669,82.276-93.036c-39.509,75.134-75.893,90.937-82.188,93.259
	c1.985,3.807,4.545,7.285,7.589,10.312c56.295,17.857,114.688-33.17,101.965-148.125
	C520.438,199.554,527.804,250.625,539.099,271.696z"/>
<path d="M433.92,145.402c-16.25,92.009,27.856,136.473,73.929,125c2.61-2.275,4.854-4.941,6.651-7.902
	c-5.045-2.143-33.304-16.964-60.982-79.464c1.295,2.009,42.232,65.581,61.071,79.509
	C524.724,245.982,533.339,205.357,433.92,145.402z"/>
<path style="fill:#CC2929;" d="M512,0C373.929,0.018,262.014,111.96,262.031,250.031c0.009,69.014,28.546,134.955,78.853,182.201
	l0,0c100.645,94.521,258.857,89.559,353.38-11.085c94.521-100.644,89.56-258.857-11.085-353.379C636.817,24.226,575.603-0.008,512,0
	z M676.018,414.018c-88.207,88.244-230.428,90.868-321.83,5.938c10.706-10.705,23.543-19.041,37.679-24.464
	c35,9.643,97.589,31.562,98.214,31.785h0.446h0.491c1.562,0,15.491,1.562,24.019-3.794c5.089-3.215,54.688-16.429,84.821-24.019
	h0.804l72.053-55.089l0.269-1.607c0.223-1.339,2.098-13.08-4.465-19.241c-3.687-3.165-8.701-4.301-13.393-3.035
	c-4.464-3.571-21.205-1.786-35.045,4.464l-69.196,20.894l-31.964,8.348l-19.465,1.384c0,0-5.58-1.16,8.349-4.151
	c8.035-1.741,19.464-11.116,38.884-9.732s27.366-5.67,37.5-9.732c3.298-2.17,5.356-5.788,5.536-9.731c0-4.196-7.5-8.929-9.732-8.349
	c-12.143,0.58-13.84-1.384-27.812-1.384c-13.884,2.768-41.027-2.679-44.643-2.768c-73.616-11.116-116.742-3.795-118.974-3.036
	c-45.491,16.295-71.429,33.08-85.402,44.643c-56.091-115.15-8.214-253.97,106.936-310.061C441.839,25.816,476.692,17.805,512,17.857
	c128.209,0.146,232.024,104.198,231.879,232.407C743.81,311.676,719.408,370.558,676.018,414.018z"/>
<circle style="fill:none;stroke:#000000;stroke-width:19;stroke-miterlimit:10;" cx="512" cy="250" r="241.5"/>
</svg>
