<svg id="Layer_1" data-name="Layer 1" xmlns="http://www.w3.org/2000/svg" viewBox="0 0 360 360"><title>hållbar_svart</title><path d="M181,14A167,167,0,0,1,299.09,299.09,167,167,0,0,1,62.91,62.91,165.91,165.91,0,0,1,181,14m0-13A180,180,0,1,0,361,181,180,180,0,0,0,181,1Z" transform="translate(-1 -1)"/><path d="M213.55,85.43a77.65,77.65,0,0,0-24.24,12.65c-3.16,2.36-3.08,3.79-.27,6.56q27.4,27,54.46,54.37c6.42,6.46,7.94,13.83,4.63,21.08-3.79,8.3-12.58,13.92-20.84,13.39-5.1-.33-9-2.88-12.47-6.39-11-11.1-22.2-22-33.1-33.26-2.79-2.87-4.38-3.08-7.33-.09-25.24,25.49-50.67,50.79-76,76.19-6,6.05-6.49,12.59-1.44,17.59S108.5,252,114.55,246q18.66-18.5,37.18-37.15c1-1,2.09-2,3.1-3.1,2-2.11,4.16-3.89,6.81-1,2.43,2.64.44,4.51-1.38,6.34q-21.68,21.68-43.36,43.35c-2.08,2.07-4.24,4.11-4.85,7.12-1.12,5.46.39,10,5.36,12.86,5.23,3,10.06,1.8,14.21-2.34q21-21,42-42c1-1,2.09-2,3.1-3.1,1.91-2,3.89-3.33,6.35-.81s.83,4.49-1,6.35q-18.36,18.36-36.71,36.73c-3.24,3.25-6.65,6.36-9.59,9.86a10.93,10.93,0,0,0,.53,14.81,11.36,11.36,0,0,0,14.8,1.53c2.15-1.52,3.17-3.06,2.66-6.21-1.65-10.3,3.41-17.89,13.5-20.71,2.81-.79,3.51-1.28,2.66-4.48-3.26-12.38,2.27-20.76,15.2-23.72,1.9-.43,3.22-.42,3.42-3.19,1.26-17.85,11.51-24.35,28-17.84.59-1.94,1-3.91,1.77-5.78,4.67-11.87,19.25-15.26,28.89-6.53,5.4,4.9,10.38,10.26,15.54,15.42,1.34,1.34,2.41,2.79,4.45.6,9-9.59,19.33-17.86,26.74-28.86,4.45-6.61,10.09-14.31,11.92-22.09,2.25-9.54,1.08-27,0-36-3.21-26.81-20.7-40.15-42.66-50.48C257.12,82.69,251.85,82,243.41,82,241.74,82,224.85,82,213.55,85.43Z" transform="translate(-1 -1)"/><path d="M55.29,163c-.36,18,20.43,42.19,36.27,57.71,3.32,3.25,4.62.46,6.37-1.28q36.53-36.44,73-72.93c5.78-5.78,5.8-5.77,11.69.12q17.47,17.46,34.94,34.93c7.29,7.26,13.07,7.4,19.85.61s6.6-12.51-.73-19.85C217.53,143.15,198,124.24,178.92,105c-11.18-11.26-15-21-34-23-.74-.08-17-1-29,0-16,1.33-25.22,4.08-35.71,12.84C65.44,107.16,54.92,118,55.29,141.66,55.3,142.32,54.92,154,55.29,163Z" transform="translate(-1 -1)"/><path d="M233,272.68a10.77,10.77,0,0,0,10.2-6c2.34-4.31,2.07-8.85-1.17-12.26q-14-14.71-28.69-28.75c-4.15-3.95-10.75-3.27-14.81.56-4.38,4.13-5.34,10.69-1.11,15.2,9.26,9.87,19,19.29,28.65,28.8A9.81,9.81,0,0,0,233,272.68Z" transform="translate(-1 -1)"/><path d="M187,246.9c-4.54,0-8.09,1.81-10.18,5.92s-2.32,8.52.71,11.75c8.81,9.39,17.89,18.56,27.3,27.36,4.29,4,10.67,3.15,14.72-.84,4.21-4.14,4.95-10.77.75-15.23-8.54-9.08-17.54-17.73-26.41-26.5A9.43,9.43,0,0,0,187,246.9Z" transform="translate(-1 -1)"/><path d="M254.08,251.12c5.19,0,8.61-2.08,10.71-6.1,2.23-4.28,2-8.75-1.27-12.24-7-7.43-14.15-14.74-21.65-21.66-4.35-4-10.6-3.35-14.78.63s-5.23,10.37-1.3,14.7c7.13,7.86,14.86,15.17,22.47,22.58A7.93,7.93,0,0,0,254.08,251.12Z" transform="translate(-1 -1)"/><path d="M159.85,285.93a13.13,13.13,0,0,0,3.75,8.41c5.9,5.88,11.68,11.89,17.71,17.65,5.46,5.22,12,5.33,16.69.63,4.55-4.52,4.43-11.56-.57-16.75q-8.88-9.23-18.12-18.12c-3.64-3.52-8.1-4.19-12.72-2.21S160.2,281.27,159.85,285.93Z" transform="translate(-1 -1)"/></svg>