<svg id="Layer_1" data-name="Layer 1" xmlns="http://www.w3.org/2000/svg" viewBox="0 0 360 360"><defs><style>.cls-1{fill:none;stroke:#000;stroke-miterlimit:10;stroke-width:3px;}.cls-2{fill:#fff;}</style></defs><title>vegansk_svart</title><path d="M181,14A167,167,0,0,1,299.09,299.09,167,167,0,0,1,62.91,62.91,165.91,165.91,0,0,1,181,14m0-13A180,180,0,1,0,361,181,180,180,0,0,0,181,1Z" transform="translate(-1 -1)"/><path class="cls-1" d="M154.5,225.5" transform="translate(-1 -1)"/><rect x="115.72" y="110.85" width="27.57" height="222.08" rx="13.79" ry="13.79" transform="translate(-82.37 74.13) rotate(-24.89)"/><rect x="169.79" y="237.39" width="27.57" height="89.38" rx="13.79" ry="13.79" transform="translate(230.36 614.23) rotate(-155.11)"/><path d="M193.71,258.11a49.12,49.12,0,0,1-12.62-8.28c6-5.22,39.27-38,51.37-138-1,3.38-31.2,110.25-51.59,137.81-21.14-18.74-50.4-72.48,63.11-198.86C305.7,173.38,262.9,254.68,193.71,258.11Z" transform="translate(-1 -1)"/><path class="cls-2" d="M192.64,226.34l.15.17c-.52.34-.79.49-.79.49Z" transform="translate(-1 -1)"/></svg>