<?xml version="1.0" encoding="iso-8859-1"?>
<!-- Generator: Adobe Illustrator 16.0.4, SVG Export Plug-In . SVG Version: 6.00 Build 0)  -->
<!DOCTYPE svg PUBLIC "-//W3C//DTD SVG 1.1//EN" "http://www.w3.org/Graphics/SVG/1.1/DTD/svg11.dtd">
<svg version="1.1" xmlns="http://www.w3.org/2000/svg" xmlns:xlink="http://www.w3.org/1999/xlink" x="0px" y="0px" width="300px"
	 height="300px" viewBox="0 0 300 300" style="enable-background:new 0 0 300 300;" xml:space="preserve">
<g id="Layer_1" style="display:none;">
	<path style="display:inline;fill-rule:evenodd;clip-rule:evenodd;fill:none;stroke:#000000;stroke-miterlimit:10;" d="
		M87.235,186.905c21.335-36.766,42.183-72.692,63.616-109.628c21.354,36.806,42.294,72.897,63.604,109.628
		C171.855,186.905,130.055,186.905,87.235,186.905z M188.912,150.234c-12.887-22.188-25.297-43.555-38.081-65.566
		c-12.917,22.262-25.331,43.657-38.043,65.566C138.321,150.234,163.182,150.234,188.912,150.234z M151.371,154.4
		c0,10.005,0,19.399,0,28.833c18.924,0,37.446,0,56.652,0c-5.822-10.051-11.302-19.509-16.704-28.833
		C177.772,154.4,164.681,154.4,151.371,154.4z M93.654,183.236c18.335,0,35.725,0,53.172,0c0-9.794,0-19.196,0-28.842
		c-12.282,0-24.212,0-36.422,0C104.948,163.789,99.458,173.242,93.654,183.236z"/>
	<path style="display:inline;fill-rule:evenodd;clip-rule:evenodd;fill:#FFFFFF;" d="M93.654,183.236
		c5.804-9.994,11.294-19.447,16.75-28.842c12.209,0,24.14,0,36.422,0c0,9.646,0,19.048,0,28.842
		C129.379,183.236,111.99,183.236,93.654,183.236z"/>
</g>
<g id="Layer_2">
	<path style="fill-rule:evenodd;clip-rule:evenodd;fill:none;stroke:#000000;stroke-width:7;stroke-miterlimit:10;" d="M11.472,275
		L58.2,194.477L150.277,35.8l94.418,162.732L289.058,275H11.472z M242.947,196.082H57.582 M150.264,196.351V275"/>
</g>
</svg>
