<?xml version="1.0" encoding="iso-8859-1"?>
<!-- Generator: Adobe Illustrator 16.0.4, SVG Export Plug-In . SVG Version: 6.00 Build 0)  -->
<!DOCTYPE svg PUBLIC "-//W3C//DTD SVG 1.1//EN" "http://www.w3.org/Graphics/SVG/1.1/DTD/svg11.dtd">
<svg version="1.1" id="Layer_1" xmlns="http://www.w3.org/2000/svg" xmlns:xlink="http://www.w3.org/1999/xlink" x="0px" y="0px"
	 width="595px" height="842px" viewBox="0 0 595 842" style="enable-background:new 0 0 595 842;" xml:space="preserve">
<g>
	<g>
		<path style="fill:none;stroke:#111111;stroke-width:5;stroke-miterlimit:10;" d="M257.978,539.93c-1.105,0-2.096,0.677-3.139,0.91
			c-2.106,0.473-2.771,2.372-3.34,4.192c-0.332,1.059-0.417,2.207-0.83,3.228c-1.068,2.641-1.079,5.543-2.297,8.174
			c-1.074,2.318-1.613,4.881-2.446,7.314c-1.742,5.095-3.523,10.176-5.287,15.264c-0.882,2.543-1.92,5.048-2.58,7.647
			c-0.4,1.575-0.825,3.054-1.578,4.518c-1,1.945-1.997,4.011-2.367,6.136c-0.558,3.2-2.001,6.079-2.771,9.191
			c-0.734,2.966-2.737,5.525-2.908,8.721c-0.029,0.536-0.529,1.203-1.005,1.523c-0.693,0.469-1.583,0.632-2.349,1.007
			c-2.822,1.382-5.81,2.04-8.918,2.448c-0.771,0.102-1.265,0.191-1.606,0.191c-0.642,0-0.751-0.316-1.163-1.462
			c-1.271-3.534-3.083-6.764-5.599-9.583c-1.801-2.018-3.573-4.063-5.312-6.137c-0.183-0.218-0.12-0.714-0.036-1.047
			c0.033-0.129,0.37-0.274,0.585-0.274c0.021,0,0.04,0.001,0.058,0.005c0.411,0.062,0.808,0.096,1.192,0.096
			c2.006,0,3.64-0.873,4.897-2.645c0.137-0.19,0.175-0.453,0.304-0.807c-0.187-0.239-0.375-0.573-0.643-0.816
			c-1.537-1.391-2.746-2.785-1.092-4.943c0.323-0.421,0.142-1.278,0.076-1.923c-0.031-0.309-0.294-0.774-0.531-0.83
			c-0.035-0.008-0.074-0.013-0.118-0.013c-0.326,0-0.846,0.216-0.858,0.354c-0.072,0.865-0.279,1.146-0.511,1.146
			c-0.397,0-0.869-0.821-0.867-0.942c0.042-2.338-1.559-3.872-2.523-5.734c-0.494-0.953-0.956-1.479-1.886-2.073
			c-2.566-1.645-5.226-2.403-8.164-2.403c-0.4,0-0.806,0.015-1.216,0.042c-1.41,0.095-2.347,0.523-3.404,1.448
			c-6.751,5.896-11.709,13.296-17.009,20.369c-4.39,5.858-7.502,12.606-12.073,18.38c-2.048,5.944-6.584,10.679-8.188,16.839
			c-3.019,4.572-3.868,10.031-6.092,14.93c0.674,1.75-1.372,2.282-1.625,3.698c-0.973,5.467-2.468,10.817-2.403,16.476
			c0.07,6.077,1.938,11.297,5.977,15.801c0.924,1.031,1.485,2.523,2.582,3.235c1.986,1.29,3.539,2.984,5.25,4.543
			c1.023,0.932,2.106,1.903,3.342,2.451c0.086,0.038,0.181,0.055,0.283,0.055c0.591,0,1.42-0.558,2.127-0.736
			c0.205-0.054,0.445-0.096,0.672-0.096c0.185,0,0.361,0.028,0.502,0.102c2.24,1.153,4.788,1.161,7.121,1.966
			c0.534,0.185,1.177,0.418,1.723,0.418c0.17,0,0.332-0.023,0.477-0.077c2.974-1.111,6.134-1.78,8.845-3.525
			c0.288-0.188,0.581-0.964,0.48-1.061c-1.08-1.048-0.13-1.586,0.472-2.234c3.276-3.533,6.56-7.06,9.804-10.621
			c0.491-0.538,0.641-1.494,1.205-1.842c1.815-1.114,1.286-3.542,2.979-4.785c1.581-1.159,2.843-2.753,4.246-4.154
			c0.28-0.28,0.586-0.54,0.837-0.846c2.195-2.654,4.455-5.266,3.841-9.134c-0.134-0.843-0.087-1.667,0.587-2.54
			c0.919-1.188,1.12-2.763,1.005-4.338c-0.04-0.543,0.151-1.376,0.533-1.629c1.389-0.917,2.11-2.214,2.702-3.688
			c0.445-1.108,1.049-2.059,2.244-2.059c0.255,0,0.538,0.043,0.852,0.138c0.158,0.049,0.306,0.069,0.445,0.069
			c0.627,0,1.092-0.436,1.599-0.89c1.032-0.925,2.162-1.748,3.305-2.536c1.103-0.762,2.241-1.46,3.513-1.46
			c0.406,0,0.825,0.07,1.262,0.232c-0.219,1.593-0.398,3.062-0.629,4.522c-0.235,1.48-0.862,2.991-0.71,4.424
			c0.253,2.394-0.89,4.509-0.91,6.819c-0.006,0.686-0.696,1.36-0.719,2.054c-0.121,3.737,0.055,7.46-0.744,11.19
			c-0.46,2.148-0.028,4.479-0.108,6.725c-0.038,1.076,0.442,1.911,0.763,2.864c1.157,3.433,3.756,5.688,6.107,8.198
			c1.516,1.62,3.297,2.795,5.281,3.571c2.052,0.805,4.228,1.357,6.397,1.763c0.442,0.083,1.059,0.231,1.604,0.231
			c0.559,0,1.043-0.156,1.191-0.696c0.249-0.906,0.607-1.158,1.02-1.158c0.4,0,0.851,0.237,1.297,0.346
			c0.42,0.102,1.059,0.521,1.261,0.521c0.023,0,0.04-0.006,0.051-0.018c1.571-1.812,4.318-2.312,5.233-4.886
			c0.611-1.721,1.588-3.307,2.326-4.984c0.743-1.691,2.179-3.162,1.66-5.297c-0.075-0.309,0.542-0.811,0.881-1.185
			c0.444-0.489,1.13-0.856,1.364-1.421c1.59-3.818,4.188-7.054,6.312-10.673c-0.437-0.032-0.689-0.069-0.925-0.069
			c-0.021,0-0.042,0-0.063,0c-0.241,0.009-0.485,0.021-0.718,0.021c-0.938,0-1.7-0.207-1.406-1.768
			c0.023-0.127-0.683-0.596-1.025-0.596c-0.028,0-0.054,0.003-0.077,0.011c-0.689,0.208-1.262,0.778-1.945,1.031
			c-0.503,0.188-1.181,0.451-1.671,0.451c-0.166,0-0.31-0.03-0.419-0.104c-0.985-0.664,0.094-1.226,0.385-1.871
			c0.233-0.518,0.047-1.223,0.047-2.245c-4.125,2.965-7.848,5.674-11.62,8.313c-0.503,0.354-1.217,0.677-1.812,0.677
			c-0.086,0-0.171-0.008-0.251-0.021c-1.104-0.2-0.465-1.276-0.577-1.969c-0.083-0.509-0.216-1.292,0.05-1.528
			c1.339-1.189,0.088-2.975,0.876-4.001c1.062-1.385,0.245-2.814,0.677-4.11c0.443-1.332,0.611-2.669,0.838-4.033
			c0.377-2.271,0.823-4.498,0.77-6.825c-0.016-0.638,0.729-1.264,0.988-1.946c0.257-0.679,0.714-1.799,0.437-2.073
			c-1.089-1.078-0.731-1.771,0.238-2.546c0.697-0.558,0.974-1.128,0.226-1.938c-0.292-0.315-0.498-1.084-0.315-1.397
			c0.738-1.268,3.067-1.496,2.414-3.72c-0.014-0.049,0.391-0.263,0.621-0.335c3.321-1.049,6.598-2.136,9.195-4.668
			c0.556-0.543,1.573-0.623,2.388-0.889c4.769-1.558,9.57-3.021,14.065-5.308c0.233-0.119,0.666-0.216,0.887-0.216
			c0.073,0,0.123,0.011,0.135,0.034c0.223,0.425,0.491,1.002,0.365,1.406c-0.943,3.041-1.979,6.053-2.979,9.075
			c-1.115,3.372-2.637,6.677-3.238,10.14c-0.894,5.161-3.264,9.996-3.27,15.328c-1.35,1.131-0.532,2.689-0.816,4.028
			c-0.287,1.344-0.924,2.562-0.813,4.043c0.175,2.363-0.315,4.835,0.208,7.093c0.395,1.703,2.117,3.054,2.922,4.719
			c1.092,2.26,1.896,2.914,3.065,2.914c0.642,0,1.393-0.197,2.362-0.436c0.364-0.089,0.59-0.15,0.733-0.15
			c0.237,0,0.246,0.172,0.275,0.682c0.042,0.734,0.103,1.466,0.154,2.178c1.159,0,2.211-0.009,3.223-0.009
			c0.616,0,1.216,0.003,1.816,0.014c2.19,0.038,2.41,0.296,2.756,2.712c0.062,0.435,0.362,0.834,0.553,1.25
			c0.527-0.321,1.174-0.547,1.544-0.997c0.274-0.334,0.319-0.986,0.239-1.457c-0.192-1.118,0.523-1.699,1.21-2.284
			c1.458-1.242,2.795-2.753,4.464-3.592c3.914-1.969,5.261-5.446,6.266-9.289c0.766-2.935,2.582-5.335,4.36-7.695
			c0.727-0.964,1.968-1.545,2.992-2.276c1.344-0.957,0.367-2.553,1.217-3.893c1.447-2.283,3.646-3.696,5.232-5.734
			c2.629-0.299,3.22-2.641,4.379-4.398c0.265-0.4,0.281-1.188,0.591-1.297c1.483-0.525,1.753-1.738,2.226-3.021
			c0.682-1.845,2.252-3.313,2.932-3.313c0.131,0,0.229,0.056,0.281,0.174c0.614,1.411,0.491,2.756-0.314,4.331
			c-0.985,1.928-1.123,4.277-1.706,6.425c-0.755,2.783-1.616,5.54-1.575,8.469c-1.497,1.406-0.09,3.487-0.895,4.764
			c-1.139,1.802-0.485,3.545-0.656,5.292c-0.166,1.703-0.148,3.444-0.006,5.15c0.154,1.875,0.48,3.745,0.891,5.582
			c0.073,0.329,0.957,0.811,1.236,0.811c0.031,0,0.054-0.005,0.068-0.017c0.508-0.402,0.946-0.556,1.35-0.556
			c1.004,0,1.779,0.956,2.841,1.385c-0.288-0.599-0.652-1.175-0.828-1.805c-0.081-0.291,0.112-0.844,0.353-0.986
			c0.066-0.039,0.154-0.056,0.254-0.056c0.252,0,0.574,0.106,0.783,0.234c0.879,0.535,0.779,1.479,1.018,2.353
			c0.41,1.503,1.093,2.204,2.141,2.204c0.497,0,1.076-0.157,1.749-0.464c1.228-0.558,2.313-1.644,3.572-1.859
			c1.776-0.309,1.304-1.312,1.045-2.228c-0.769-2.703-1.033-5.888-0.14-7.457c1.604-2.812,2.318-5.928,3.295-8.949
			c0.346-1.069-0.176-2.593,0.408-3.375c1.062-1.416,0.205-2.295-0.177-3.453c-0.157-0.479,0.147-1.271,0.496-1.726
			c0.64-0.832,1.623-1.42,2.177-2.291c0.858-1.353,2.07-2.979,0.961-4.497c-1.022-1.399-0.207-2.148,0.604-2.453
			c1.31-0.489,2.218-1.296,2.821-2.401c1.351-2.472,2.586-5.007,3.817-7.54c0.372-0.765,0.435-1.708,0.896-2.395
			c0.231-0.344,0.48-0.57,0.771-0.57c0.272,0,0.58,0.201,0.942,0.698c1.812,2.484,2.533,5.079,2.396,8.18
			c-0.171,3.792-0.433,7.58,1.411,11.292c1.332,2.681,2.503,5.441,4.55,7.594c1.157,1.216,1.873,2.771,3.469,3.732
			c1.648,0.992,2.75,2.853,4.295,4.073c0.935,0.739,1.904,1.819,3.076,1.819c0.551,0,1.146-0.238,1.805-0.861
			c0.072,0,0.144,0.001,0.215,0.001c0.527,0,1.053-0.011,1.578-0.011c1.562,0,3.111,0.095,4.604,0.854
			c0.887,0.45,1.424,0.711,1.84,0.711c0.568,0,0.905-0.492,1.604-1.654c0.292-0.487,0.525-0.682,0.818-0.682
			c0.181,0,0.384,0.072,0.635,0.196c0.392,0.194,1.055,0.562,1.249,0.562c0.022,0,0.038-0.005,0.048-0.017
			c0.552-0.68,1.204-0.841,1.877-0.841c0.604,0,1.227,0.13,1.807,0.13h0.002c1.194-0.002,2.233-0.279,3.241-0.837
			c1.399-0.772,2.733-1.729,4.22-2.253c0.881-0.31,1.188-0.497,1.273-1.463c0.119-1.341,0.504-2.678,0.925-3.966
			c0.136-0.412,0.412-0.607,0.774-0.607c0.4,0,0.908,0.24,1.439,0.692c0.08,0.067,0.256,0.101,0.416,0.101
			c0.152,0,0.295-0.028,0.331-0.086c0.192-0.295,0.134-0.77,0.347-1.031c0.805-0.987,0.809-1.329-0.619-1.771
			c-2.209-0.682-4.538-0.893-6.62-2.234c-2.265-1.462-4.991-2.015-7.688-2.484c-2.187-0.382-4.312-1.105-6.494-1.516
			c-0.795-0.148-1.168-0.29-1.119-1.145c0.054-0.923,0.031-1.851,0.009-2.775c-0.054-1.993,0.991-3.998,2.506-4.366
			c2.291-0.56,3.783-2.248,5.931-3.014c4.231-1.51,8.616-2.829,12.479-5.284c2.599-1.651,5.447-3.099,5.277-6.87
			c1.319-0.816,0.849-2.477,1.863-3.64c1.812-2.072,3.546-4.313,5.062-6.604c3.016-4.552,6.425-8.758,9.892-12.942
			c0.301-0.364,0.716-1.129,0.583-1.284c-1.784-2.083-0.064-3.45,0.932-4.962c0.68-1.03,1-4.086,0.793-5.427
			c-0.106-0.697-0.775-1.881,0.864-2.051c0.522-0.055,1.148-0.838,1.63-0.838c0.305,0,0.552,0.311,0.68,1.309
			c0.02,0.158,0.651,0.304,1.006,0.32c0.002,0,0.004,0,0.006,0c0.154,0,0.43-0.311,0.464-0.508c0.295-1.736,0.917-3.525,0.713-5.209
			c-0.227-1.871-0.921-3.69-0.694-5.635c-0.955-0.394-0.196-2.091-1.762-2.187c-0.501-0.031-1.344-1.038-1.335-1.586
			c0.025-1.446-0.842-2.291-1.432-3.418c-1.04-1.988-3.132-3.288-3.534-5.682c-0.074-0.445-0.898-0.896-1.465-1.109
			c-2.774-1.052-5.45-2.432-8.532-2.432c-0.129,0-0.26,0.003-0.391,0.009c-1.395,0.053-2.79,0.086-4.188,0.086
			c-1.249,0-2.499-0.026-3.744-0.092c-0.186-0.01-0.369-0.015-0.552-0.015c-4.064,0-7.146,2.333-10.322,4.415
			c-1.59,1.041-2.85,2.667-4.523,3.474c-1.755,0.847-3.004,2.185-4.023,3.564c-2.322,3.143-4.947,6.054-7.092,9.333
			c-2.24,3.427-4.865,6.609-6.605,10.356c-0.978,2.105-2.23,4.139-2.842,6.348c-0.648,2.348-2.373,4.034-3.162,6.238
			c-0.123,0.346-0.203,0.709-0.348,1.046c-0.624,1.46-1.238,2.925-1.916,4.36c-0.15,0.321-0.648,0.807-0.779,0.807
			c-0.008,0-0.013-0.001-0.018-0.004c-0.436-0.24-0.967-0.589-1.113-1.02c-0.643-1.854-1.156-3.754-1.724-5.636
			c-0.798-2.646-2.401-4.912-4.019-7.028c-1.149-1.505-3.27-2.234-4.838-3.462c-1.677-1.312-3.531-1.75-5.602-1.849
			c-0.104-0.005-0.205-0.008-0.307-0.008c-1.325,0-2.385,0.438-3.006,1.584c-2.062,3.803-5.845,6.089-8.25,9.646
			c-1.858,2.751-4.545,4.925-6.725,7.516c-3.434,4.08-7.343,7.759-10.928,11.737c-4.21,4.674-8.898,8.895-12.033,14.48
			c-0.982,1.753-3.013,3.021-3.647,4.833c-0.565,1.611-1.833,1.613-2.731,2.362c-0.346,0.289-0.671,0.4-0.983,0.4
			c-0.883,0-1.655-0.895-2.454-1.184c-0.366-0.133-0.404-1.68-0.272-2.531c0.104-0.68,0.729-1.269,1.049-1.933
			c0.201-0.414,0.418-0.914,0.364-1.344c-0.251-1.958,0.135-3.714,1.143-4.913c0.485-0.577,1.091-1.149,1.304-1.831
			c0.227-0.723-0.15-1.646,0.116-2.34c0.208-0.542,1.229-0.759,1.471-1.306c0.444-1.001,0.552-2.146,0.852-3.217
			c0.396-1.418,0.46-3.151,1.339-4.171c2.192-2.545,2.345-5.976,4.207-8.604c-0.293-2.011,1.846-3.19,1.652-5.298
			c-0.248-2.691,0.893-5.065,2.438-7.299c0.963-1.393,1.811-2.994,2.192-4.623c0.64-2.724,1.272-5.334,3.431-7.336
			c0.393-0.364,0.27-1.247,0.629-1.693c0.949-1.178,0.312-2.843,1.12-3.896c3.228-4.201,5.628-9.041,9.527-12.707
			c1.909-1.794,3.339-3.561,2.87-6.4c-0.124-0.753,0.773-1.67,0.656-2.427c-0.143-0.913-0.896-1.724-1.321-2.607
			c-0.156-0.324-0.237-0.758-0.171-1.106c0.492-2.561-1.043-4.326-2.375-6.165c-1.344-1.856-2.43-3.834-4.379-5.31
			c-1.823-1.38-3.748-1.44-5.695-1.44c-0.189,0-0.379,0.001-0.568,0.001c-0.494,0-0.988-0.004-1.482-0.032
			c-0.049-0.003-0.098-0.004-0.145-0.004c-1.67,0-2.059,1.76-3.242,2.377c-1.401,0.729-1.108,2.229-1.595,3.326
			c-0.937,2.117-2.228,4.036-2.849,6.37c-0.938,3.521-2.51,6.878-3.876,10.278c-1.275,3.173-2.695,6.288-3.942,9.475
			c-1.648,4.211-3.195,8.461-4.773,12.697c-1.791,4.812-4.379,9.303-5.639,14.34c-0.179,0.717-0.291,1.935-1.563,2.271
			c-1.409,0.372-2.706,1.229-4.123,1.487c-0.463,0.084-0.966,0.177-1.46,0.177c-0.78,0-1.542-0.23-2.106-1.087
			c-0.121-0.186-0.476-0.36-0.714-0.36c-0.037,0-0.07,0.004-0.1,0.014c-3.224,0.961-6.631,1.116-9.821,2.146
			c-2.734,0.883-5.465,1.553-8.329,1.553c-0.558,0-1.122-0.024-1.691-0.08c-0.514-2.16,0.156-3.835,1.615-5.254
			c1.373-1.334,2.12-3.07,3.132-4.642c0.639-0.991,0.791-1.607,0.297-2.771c-0.889-2.093-0.731-4.015,1.054-5.989
			c1.379-1.528,1.993-3.75,3.707-5.188c0.366-0.308,0.294-1.187,0.344-1.809c0.111-1.419,0.026-2.869,0.297-4.253
			c0.252-1.294,2.18-2.303,0.561-3.938c-0.109-0.11,0.505-1.071,0.91-1.521c0.784-0.868,1.285-1.675,1.515-2.976
			c0.621-3.514,1.787-6.911,4.073-9.794c1.083-1.364,1.887-2.99,2.646-4.472c0.772-1.503,0.656-3.636-0.292-5.555
			c-0.74-1.5-1.453-3.071-1.934-4.768c-0.443-1.561-1.293-3.694-3.609-3.694c-0.191,0-0.394,0.016-0.605,0.046
			c-0.518-0.597-1.15-0.741-1.8-0.741c-0.618,0-1.252,0.131-1.821,0.131c-0.419,0-0.802-0.071-1.116-0.32
			C259.161,540.113,258.554,539.93,257.978,539.93L257.978,539.93z M378.325,621.092c-2.093-0.541-3.502-1.575-4.622-2.988
			c-0.11-0.14,0.35-1.07,0.596-1.095c0.928-0.086,1.299-0.803,0.852-1.247c-1.271-1.265-0.687-2.271,0.096-3.374
			c0.646-0.912,0.482-2.208,2.011-2.768c0.985-0.36,1.575-1.876,2.267-2.924c0.244-0.371,0.518-1.039,0.352-1.317
			c-1.646-2.76,0.49-4.163,2.021-5.742c0.403-0.416,1.28-0.438,1.576-0.885c1.702-2.555,4.231-4.108,6.635-5.851
			c0.525-0.382,0.834-1.241,0.979-1.938c0.512-2.425,2.219-4.081,4.624-4.118c0.011,0,0.021,0,0.03,0
			c0.681,0,1.421,0.353,2.028,0.713c0.551,0.328,0.908,0.961,1.43,1.357c0.688,0.524,1.976,0.862,2.066,1.433
			c0.163,1.006-0.136,2.274-0.673,3.176c-2.667,4.468-4.838,9.222-8.314,13.225c-3.543,4.08-6.789,8.426-10.713,12.167
			C380.602,619.833,379.33,620.43,378.325,621.092L378.325,621.092z M172.472,675.656c-0.116,0-0.221-0.018-0.307-0.053
			c-1.469-0.604-2.913-1.338-4.223-2.23c-1.006-0.688-0.785-1.371,0.526-2.475c0.767-0.646,0.916-1.217-0.236-1.588
			c-0.233-0.073-0.657-0.152-0.662-0.247c-0.089-1.696-0.406-3.448-0.095-5.078c0.281-1.481,0.795-3.075,2.784-3.598
			c0.8-0.209,1.895-1.257,0.532-2.433c-0.043-0.038,0.45-0.712,0.71-1.078c1.054-1.481,0.984-1.576-0.596-2.729
			c-0.643-0.471-0.992-0.785-0.459-2.019c1.828-4.22,4.648-7.685,7.476-11.176c1.619-1.999,3.365-3.896,5.024-5.862
			c0.224-0.265,0.275-0.676,0.391-0.979c-1.963-1.908-0.254-3.279,0.577-4.697c1.125-1.921,3.218-2.388,5.129-2.887
			c0.179-0.047,0.347-0.069,0.504-0.069c1.181,0,1.731,1.275,1.687,3.046c-0.067,2.642-0.429,5.278,1.474,7.726
			c1.825,2.345,0.877,5.122-0.351,7.438c-2.474,4.664-4.141,9.771-7.512,13.95c-1.029,3.789-3.85,6.576-5.65,9.943
			c-1.3,2.431-3.463,4.413-5.333,6.514C173.582,675.393,172.94,675.656,172.472,675.656L172.472,675.656z"/>
	</g>
	<g>
		<path style="fill:none;stroke:#111111;stroke-width:5;stroke-miterlimit:10;" d="M429.68,186.112c-0.379,0-0.789,0.131-1.24,0.389
			c-2.381,1.357-4.302,3.098-5.64,5.536c-0.379,0.69-0.717,1.251-0.788,2.073c-0.095,1.095-0.498,2.162-0.749,3.245
			c-0.253,1.096,0.562,2.39-0.614,3.314c0.266,2.854-1.379,5.275-1.809,7.987c-0.428,2.701-1.126,5.384-1.734,8.029
			c-0.657,2.845-1.582,5.777-2.015,8.604c-0.662,4.344-2.751,8.384-2.571,12.862c-1.771,1.232-0.294,3.34-1.431,4.999
			c-0.957,1.398-0.256,3.854-1.052,5.465c-0.805,1.63-0.295,3.278-0.889,4.796c-1.762,4.501-2.426,9.298-3.795,13.899
			c-0.809,2.709-1.329,5.481-2.254,8.178c-1.394,4.074-2.096,8.379-3.303,12.524c-0.68,2.333-1.744,4.561-2.732,6.793
			c-0.116,0.263-0.283,0.644-0.682,0.644c-0.186,0-0.423-0.084-0.729-0.303c-2.018-1.444-4.328-1.967-6.758-1.967
			c-0.52,0-1.043,0.024-1.571,0.068c-0.646,0.054-1.339,0.13-2.007,0.13c-0.67,0-1.314-0.076-1.86-0.328
			c-1.054-0.485-2.063-0.682-3.048-0.682c-1.834,0-3.568,0.684-5.281,1.461c-5.044,2.288-9.166,5.869-12.982,9.804
			c-0.776,0.8-1.283,1.855-1.987,2.732c-2.316,2.883-5.121,5.483-6.896,8.664c-2.549,4.568-4.885,9.316-6.566,14.315
			c-1.368,4.064-2.82,8.111-3.922,12.25c-0.801,3.012-1.739,6.048-1.646,9.243c0.015,0.523,0.201,1.263-0.065,1.536
			c-1.455,1.488-0.433,3.269-0.719,4.878c-0.287,1.604-0.65,3.208-0.768,4.828c-0.135,1.841-0.135,3.707-0.003,5.548
			c0.135,1.883,0.534,3.744,0.756,5.623c0.299,2.53,0.153,5.19,0.91,7.568c0.765,2.405,1.114,5.046,3.37,7.001
			c1.137,0.985,1.845,3.069,3.242,3.627c1.91,0.763,1.598,2.601,2.666,3.714c3.394,3.537,7.015,6.753,11.299,9.165
			c0.382,0.213,0.771,0.526,1.183,0.526c0.291,0,0.593-0.158,0.905-0.625c0.432-0.645,1.146-0.903,1.796-0.903
			c0.551,0,1.056,0.187,1.301,0.48c0.97,1.166,2.077,1.346,3.22,1.346c0.506,0,1.021-0.036,1.53-0.036
			c0.104,0,0.209,0.002,0.313,0.005c1.179,0.041,2.104,0.296,3.181,1.021c0.995,0.672,2.293,1.452,3.583,1.452
			c0.318,0,0.637-0.048,0.949-0.156c0.482-0.167,0.914-0.242,1.309-0.242c1.087,0,1.9,0.571,2.786,1.377
			c1.317,1.197,2.729,2.297,4.164,3.354c0.175,0.129,0.521,0.203,0.813,0.203c0.219,0,0.406-0.041,0.479-0.127
			c0.924-1.13,2.062-1.265,3.44-1.383c0.52-0.045,0.934-0.079,1.271-0.079c1.062,0,1.371,0.343,1.82,1.788
			c0.074,0.242-0.074,0.567,0.031,0.779c0.143,0.289,0.432,0.507,0.656,0.754c0.304-0.305,0.696-0.561,0.886-0.923
			c0.222-0.426,0.176-0.996,0.407-1.411c0.327-0.585,0.813-1.541,1.215-1.541c0.002,0,0.004,0,0.006,0
			c0.92,0.021,1.562,0.713,1.595,1.813c0.014,0.463,0.216,0.99,0.497,1.365c0.766,1.022,1.397,1.546,2.15,1.546
			c0.567,0,1.202-0.296,2.013-0.898c1.26-0.937,2.189-2.319,3.229-3.538c0.131-0.152,0.016-0.514,0.019-0.777
			c0.025-2.167,0.445-4.312,0.631-6.426c0.31-3.555,1.979-6.802,1.89-10.375c1.423-1.755,0.323-3.798,0.648-5.681
			c0.323-1.866,1.772-3.912-0.789-5.357c0-1.19-0.461-2.69,0.091-3.51c1.395-2.065-0.169-4.659,1.496-6.542
			c-0.273-4.286,1.424-8.454,0.784-12.757c-0.313-2.104,0.398-4.044,1.138-5.881c0.309-0.767,0.515-1.47,0.397-2.176
			c-0.071-0.424-0.659-0.811-1.096-1.087c-0.006-0.003-0.013-0.005-0.021-0.005c-0.132,0-0.609,0.406-0.778,0.688
			c-0.69,1.161-1.305,2.369-2.005,3.524c-0.037,0.062-0.219,0.088-0.396,0.088c-0.181,0-0.355-0.027-0.369-0.067
			c-0.213-0.614-0.479-1.266-0.455-1.896c0.041-1.131,0.251-2.259,0.43-3.382c0.077-0.483,0.172-1.322,0.392-1.37
			c2.288-0.484,2.954-3.042,5.153-3.979c0,0.948,0.066,1.727-0.015,2.488c-0.182,1.722,0.431,3.172,1.226,4.659
			c1.96,3.665,4.37,7.011,7.062,10.147c1.302,1.517,2.127,3.054,2.066,5.115c-0.097,3.302-0.015,6.609-0.028,9.914
			c-0.013,2.556,0.669,4.991,1.904,7.136c2.321,4.025,4.949,7.865,8.077,11.339c2.599,2.886,5.83,4.97,8.864,7.312
			c0.373,0.289,0.646,0.407,0.925,0.407c0.301,0,0.605-0.141,1.043-0.355c1.388-0.681,2.793-1.114,4.183-1.114
			c1.438,0,2.858,0.465,4.227,1.597c0.375,0.31,0.819,0.58,1.275,0.735c0.438,0.149,0.834,0.225,1.192,0.225
			c1.154,0,1.925-0.775,2.426-2.368c0.218-0.69,0.397-1.042,0.698-1.042c0.245,0,0.571,0.236,1.062,0.717
			c0.416,0.407,0.725,0.615,1.034,0.615c0.302,0,0.604-0.198,1.008-0.603c0.389-0.39,1.144-0.628,1.77-0.628
			c0.106,0,0.209,0.008,0.306,0.021c0.413,0.062,0.817,0.09,1.213,0.09c2.305,0,4.322-0.97,6.327-2.054
			c0.65-0.353,1.264-1.032,1.919-1.067c2.313-0.122,2.924-1.217,3.01-3.464c0.076-2.02,0.649-4.195,2.905-5.418
			c0.115,0.78,0.222,1.508,0.342,2.32c1.38-1.465,1.38-1.465,1.046-3.938c-0.719,0-1.438-0.013-2.158-0.013
			c-0.464,0-0.929,0.005-1.393,0.022c-0.098,0.005-0.192,0.007-0.288,0.007c-1.054,0-2.005-0.234-2.968-0.784
			c-3.026-1.73-6.43-2.403-9.776-3.191c-2.416-0.567-4.843-1.091-7.274-1.586c-2.186-0.445-2.729-1.021-2.747-3.111
			c-0.008-1.057,0.032-2.115-0.012-3.172c-0.035-0.82,0.115-1.458,0.779-2.075c1.307-1.219,2.514-2.521,4.422-2.764
			c0.36-0.046,1.003-0.157,1.021-0.303c0.346-2.663,2.826-2.178,4.373-2.774c1.823-0.702,3.639-1.723,5.687-1.723
			c0.25,0,0.504,0.015,0.762,0.048c3.559-2.204,7.688-3.479,10.88-6.216c1.658-1.423,3.326-3.196,3.067-5.846
			c-0.053-0.542,0.428-1.126,0.63-1.702c1.278-3.629,4.021-6.292,6.183-9.334c1.534-2.157,3.178-4.235,4.752-6.364
			c0.593-0.802,1.074-1.688,1.696-2.465c2.312-2.884,4.694-5.716,6.969-8.629c0.341-0.437,0.562-1.52,0.308-1.773
			c-1.69-1.694-0.493-3.278,0.452-4.348c1.691-1.91,2.181-3.963,1.985-6.354c-0.053-0.656-0.142-1.357,0.028-1.973
			c0.189-0.692,0.539-1.737,1.022-1.868c0.236-0.063,0.483-0.088,0.737-0.088c0.701,0,1.453,0.188,2.17,0.25
			c0.076,0.849,0.271,1.126,0.49,1.126c0.379,0,0.828-0.829,0.861-0.976c0.428-1.958,1.247-4.062,0.872-5.899
			c-0.36-1.765-0.441-3.502-0.688-5.248c-0.185-1.308-0.476-3.245-1.34-3.686c-2.129-1.086-2.628-2.772-2.978-4.758
			c-0.062-0.354-0.188-0.739-0.403-1.016c-2.186-2.804-4.39-5.591-6.601-8.374c-0.5-0.629-1.273-0.708-1.958-1.008
			c-3.891-1.711-8.106-1.489-12.146-2.229c-0.876-0.16-1.771-0.21-2.677-0.21c-1.476,0-2.975,0.132-4.448,0.136
			c-0.003,0-0.005,0-0.007,0c-0.382,0-0.812-0.071-1.2-0.071c-0.276,0-0.531,0.036-0.73,0.159c-3.774,2.34-8.15,3.639-11.519,6.685
			c-2.104,1.903-4.027,4.174-6.455,5.508c-3.126,1.715-4.086,5.246-6.904,7.069c-2.312,4.301-5.54,7.983-8.16,12.081
			c-1.797,2.812-3.862,5.409-4.794,8.735c-0.59,2.108-1.553,4.15-2.989,5.896c-0.312,0.38-0.709,0.809-0.772,1.255
			c-0.712,5.014-3.963,8.938-5.746,13.492c-0.59,1.507-0.955,1.919-2.001,1.919c-0.301,0-0.659-0.034-1.095-0.086
			c-0.705-0.084-1.387-0.469-2.054-0.771c-1.244-0.562-2.561-0.838-3.862-0.838c-2.406,0-4.772,0.939-6.582,2.748
			c-0.429,0.429-0.664,1.048-0.99,1.578c-0.249-0.158-0.499-0.316-0.749-0.477c0.109-0.7,0.045-1.492,0.359-2.083
			c1.315-2.473,1.261-5.28,1.981-7.896c0.304-1.093,0.109-2.379-0.51-3.703c-1.132-2.428,0.699-4.943,0.681-7.516
			c-0.007-0.967,1.295-1.903,1.415-2.922c0.139-1.177-1.119-2.28-0.701-3.625c0.431-1.386,0.646-2.674-0.462-3.926
			c-0.66-0.745-0.521-1.571,0.157-2.432c0.755-0.958,1.515-2.038,1.838-3.187c0.976-3.457,2.599-6.773,2.452-10.503
			c-0.017-0.448,0.416-0.896,0.488-1.368c0.147-0.966,0.195-1.947,0.283-2.922c-0.847,0.463-1.59,1.095-1.524,1.629
			c0.235,1.954-1.324,3.204-1.688,4.896c-0.045,0.208-0.536,0.46-0.831,0.46c-0.02,0-0.037-0.001-0.055-0.003
			c-0.248-0.031-0.629-0.457-0.636-0.717c-0.054-1.981-0.09-3.967-0.011-5.947c0.058-1.465,1.63-2.825,3.075-2.825
			c0.138,0,0.274,0.012,0.408,0.038c0.317,0.061,0.508,0.606,0.768,0.606c0.157,0,0.34-0.2,0.592-0.826
			c1.429-3.55,1.62-7.094,1.368-11.596c-0.877,1.453-1.302,2.279-1.854,3.009c-0.197,0.263-0.828,0.535-1.01,0.535
			c-0.021,0-0.037-0.004-0.044-0.012c-0.388-0.462-0.812-1.016-0.883-1.581c-0.048-0.38,0.692-0.829,0.697-1.25
			c0.021-2.661,1.022-4.541,3.594-5.651c0.839-0.363,1.61-1.405,1.948-2.31c1.455-3.898,2.639-7.91,3.855-11.872
			c1.3-4.231,2.585-8.435,4.312-12.508c0.238-0.562,0.563-1.151,0.574-1.732c0.03-1.544,0.534-2.475,2.259-2.477
			c0.314,0,0.862-0.511,0.902-0.836c0.126-1.005,0.027-1.959,0.768-2.894c0.366-0.462,0.291-1.969-0.083-2.202
			c-1.442-0.896-1.126-3.839-3.332-3.839c-0.281,0-0.604,0.048-0.977,0.154c-0.039,0.011-0.08,0.017-0.123,0.017
			c-0.428,0-1.02-0.519-1.483-0.821c-0.166-0.108-0.316-0.486-0.251-0.652c0.117-0.297,0.354-0.632,0.629-0.766
			c0.131-0.063,0.272-0.085,0.423-0.085c0.349,0,0.733,0.121,1.091,0.121c0.425,0,0.812-0.171,1.054-0.918
			c0.31-0.948,0.66-1.818,0.81-2.851c0.312-2.191,0.98-4.333,1.531-6.489c0.089-0.348,0.25-0.718,0.484-0.98
			c0.618-0.687,1.188-1.571,1.979-1.911c0.891-0.383,0.278-2.057,1.401-2.057c0.136,0,0.294,0.024,0.484,0.078
			c0.079-0.451,0.389-1.098,0.2-1.322c-1.453-1.717-1.474-3.716-1.417-5.787c0.015-0.581-0.387-1.162-0.499-1.761
			c-0.64-3.389-2.695-5.894-5.056-8.22c-1.317-1.299-3.024-2.414-3.812-3.983c-0.749-1.496-1.997-2.332-2.93-3.533
			C430.711,186.389,430.229,186.112,429.68,186.112L429.68,186.112z M456.485,342.517c-0.63,0-0.94-0.486-1.127-1.502
			c-0.2-1.089-0.538-2.152-0.858-3.396c1.188-2.971,0.77-6.473,2.769-9.434c1.897-2.811,3.981-5.44,7.042-6.827
			c1.965-0.891,2.872-2.396,3.727-4.01c2.538-4.805,5.357-9.389,9.354-13.141c0.337-0.316,0.874-0.419,1.318-0.621
			c0.154,0.451,0.364,0.891,0.452,1.355c0.184,0.974-0.008,1.906,0.549,2.958c0.444,0.84-0.695,2.4-0.452,3.49
			c0.411,1.845-1.528,2.228-1.837,3.681c-0.176,0.828-1.157,2.078-2.629,2.078c-0.12,0-0.244-0.009-0.371-0.026
			c-0.005,0-0.011-0.001-0.016-0.001c-0.223,0-0.614,0.592-0.771,0.964c-1.087,2.586-2.312,5.134-3.129,7.805
			c-0.594,1.942-1.54,3.606-2.617,5.262c-0.532,0.818-0.976,1.702-1.403,2.584c-1.908,3.925-4.969,6.641-8.874,8.457
			C457.151,342.408,456.783,342.517,456.485,342.517L456.485,342.517z M379,389.286c-0.034,0-0.068,0-0.104,0
			c-4.494-0.059-6.352-1.012-7.515-5.216c-0.755-2.729-1.649-5.414-2.563-8.069c-0.879-2.562-1.204-5.242-2.161-7.808
			c-0.904-2.426-1.152-5.343-0.8-7.921c0.385-2.815,0.6-5.762,1.527-8.446c1.207-3.492,1.668-7.177,3.082-10.604
			c1.461-3.536,2.995-7.095,5.44-9.992c2.18-2.582,5.37-3.857,8.717-4.673c3.205-0.779,6.597-1.083,9.396-3.129
			c0.494-0.361,1.084-0.59,1.586-0.941c0.459-0.321,0.897-0.478,1.282-0.478c0.719,0,1.244,0.543,1.347,1.569
			c0.103,1.046,0.019,2.11,0.019,3.167c0.102,2.81-0.672,5.437-1.441,8.11c-0.587,2.038-0.535,4.252-0.968,6.347
			c-0.428,2.062-0.517,4.199-1.32,6.181c-0.614,1.515,0.326,3.369-1.029,4.724c-0.264,4.778-1.604,9.394-2.543,14.033
			c-0.852,4.198-1.145,8.592-2.957,12.607c-0.396,0.878,0.27,2.349-0.241,3.043c-1.589,2.165-1.796,4.824-2.845,7.169
			c-0.4,0.896-0.964,1.199-1.407,1.199c-0.207,0-0.389-0.066-0.516-0.168c-0.779-0.63-1.599-0.751-2.423-0.751
			C380.041,389.237,379.518,389.286,379,389.286L379,389.286z"/>
	</g>
	<g>
		<path style="fill:none;stroke:#111111;stroke-width:5;stroke-miterlimit:10;" d="M245.44,306.666
			c-0.211,0-0.429,0.008-0.652,0.025c-1.649,0.121-2.911,0.427-4.118,1.671c-1.208,1.245-2.781,2.14-4.22,3.151
			c-1.222,0.861-2.515,1.623-3.699,2.53c-0.335,0.258-0.301,0.952-0.598,1.313c-3.81,4.643-7.654,9.259-11.479,13.89
			c-1.379,1.669-2.77,3.332-4.086,5.051c-3.147,4.107-6.117,8.36-9.42,12.335c-2.449,2.946-4.25,6.42-7.246,8.915
			c-1.425,3.857-5.194,6.12-6.729,9.903c-4.227,4.415-7.537,9.545-11.237,14.373c-0.272,0.354-0.843,0.481-1.275,0.716
			c-0.198-0.408-0.596-0.835-0.561-1.222c0.195-2.146,0.492-4.279,0.761-6.417c0.3-2.387,0.306-4.869,1.041-7.114
			c0.355-1.086,2.083-1.725,3.186-2.568c0.104-0.08,0.219-0.169,0.277-0.281c1.754-3.375,3.444-6.783,4.202-10.548
			c0.256-1.272-0.034-2.5-0.759-3.642c-1.129-1.78-2.066-3.649-3.311-5.397c-2.07-2.91-4.719-5.185-7.131-7.712
			c-2.625-2.751-5.796-4.831-9.346-6.125c-1.692-0.617-3.45-1.405-5.298-1.405c-0.535,0-1.077,0.065-1.628,0.222
			c-2.519,0.71-4.854,1.976-6.786,3.667c-3.974,3.479-7.224,7.627-10.153,12.024c-2.736,4.106-5.119,8.481-8.938,11.776
			c-0.559,0.482-0.88,1.229-1.383,1.79c-0.399,0.445-1.033,1.196-1.348,1.196c-0.02,0-0.039-0.003-0.056-0.009
			c-0.705-0.259-1.15-0.981-0.98-1.909c0.094-0.513,0.021-1.056,0.015-1.584c-0.009-0.902,0.139-1.328,1.186-1.927
			c1.697-0.969,3.312-2.473,2.85-5.099c-0.3-1.709,1.237-3.347,0.75-5.218c-0.041-0.158,0.215-0.478,0.41-0.598
			c1.364-0.854,1.137-2.199,1.164-3.497c0.024-1.158,0.062-2.328,0.251-3.466c0.271-1.634,2.347-2.104,2.717-3.151
			c0.428-1.209-1.118-2.635-0.017-4.539c1.272-2.199-0.273-4.601-2.105-5.837c-1.487-1.005-2.724-2.254-3.055-3.64
			c-1.036-4.339-4.378-5.991-7.869-7.554c-1.333-0.597-2.835-0.804-4.239-1.255c-0.79-0.254-1.655-0.374-2.541-0.374
			c-2.718,0-5.631,1.132-7.157,3.017c-0.296,0.366-0.545,0.882-0.565,1.338c-0.08,1.904-0.185,3.744-0.721,5.646
			c-0.609,2.159,0.005,4.49-0.755,6.826c-0.679,2.086-0.473,4.504-0.791,6.784c-0.486,3.496-1.05,6.97-1.559,10.452
			c-0.309,2.111-0.916,4.211-1,6.387c-0.087,2.275-0.499,4.54-0.747,6.812c-0.057,0.52,0.132,1.121-0.066,1.562
			c-1.104,2.457-1.026,5.135-1.484,7.704c-0.376,2.111-1.29,4.179-0.837,6.404c-1.833,4.681-2.064,9.714-3.076,14.568
			c-0.766,3.68-1.753,7.389-1.684,11.22c-1.375,1.652-0.387,3.743-1.023,5.525c-0.897,2.515-1.588,5.053-1.368,7.767
			c0.063,0.782,0.311,1.872-0.087,2.308c-1.188,1.299-0.461,2.751-0.7,4.104c-0.239,1.35-0.701,2.684-0.751,4.036
			c-0.115,3.036,0.005,6.08-0.052,9.119c-0.033,1.769,0.651,3.13,1.809,4.423c1.813,2.028,3.877,3.709,6.392,4.701
			c0.968,0.383,1.457,0.668,1.362,1.794c-0.105,1.241,0.165,2.047,1.013,2.047c0.343,0,0.779-0.132,1.324-0.419
			c0.018-0.01,0.038-0.014,0.061-0.014c0.206,0,0.595,0.356,0.889,0.511c0.384,0.201,0.742,0.299,1.078,0.299
			c0.6,0,1.134-0.311,1.638-0.895c0.91-1.057,1.332-1.534,1.776-1.534c0.376,0,0.768,0.342,1.483,0.968
			c0.763,0.668,1.135,0.989,1.588,0.989c0.438,0,0.954-0.301,1.973-0.881c0.41-0.232,0.974-0.249,1.47-0.263
			c0.755-0.02,1.513-0.044,2.27-0.044c0.566,0,1.131,0.015,1.694,0.055c0.078,0.006,0.152,0.008,0.225,0.008
			c1.087,0,1.61-0.614,2.143-1.543c2.092-3.64,3.266-7.644,4.705-11.537c0.677-1.83,1.698-3.7,0.104-5.734
			c-0.383-0.488-0.102-1.846,0.307-2.554c2.772-4.791,4.047-10.238,6.726-15.071c1-1.804,1.758-3.773,2.381-5.747
			c0.937-2.965,2.63-5.524,3.987-8.269c1.868-3.774,4.813-6.891,6.383-10.836c0.541-1.359,1.372-2.604,2.068-3.902
			c0.461-0.859,0.547-2.212,1.705-2.212c0.13,0,0.274,0.017,0.434,0.054c0.343,0.079,0.343,1.564,0.533,2.395
			c0.247,1.085,0.642,2.147,0.769,3.244c0.603,5.215-1.122,10.32-0.795,15.532c0.02,0.322-0.33,0.651-0.433,0.999
			c-0.83,2.822-1.513,5.661-2.54,8.458c-1.275,3.474-1.381,7.415-1.717,11.18c-0.246,2.754-0.08,5.548-0.027,8.322
			c0.014,0.731,0.255,1.469,0.449,2.187c1.145,4.253,3.539,7.719,6.719,10.703c2.61,2.447,6.24,2.155,9.262,3.495
			c0.058,0.025,0.137,0.038,0.221,0.038c0.191,0,0.413-0.062,0.494-0.163c0.481-0.604,1.055-0.751,1.648-0.751
			c0.557,0,1.131,0.131,1.663,0.14c0.239,0.004,0.476,0.008,0.709,0.008c1.726,0,3.237-0.22,3.838-2.406
			c0.09-0.325,0.75-0.762,1.104-0.762c0.032,0,0.061,0.003,0.087,0.011c0.565,0.157,1.285,0.615,1.461,1.115
			c0.293,0.834,0.209,1.802,0.295,2.85c1.351-0.844,1.842-1.975,1.262-2.867c-1.571-2.426-0.433-4.306,0.841-6.243
			c0.275-0.419,0.72-0.781,0.842-1.235c1.082-4.032,3.29-7.646,4.287-11.725c0.188-0.768,0.309-1.131,0.039-1.963
			c-0.898-2.761-0.513-5.623,1.145-7.964c2.305-3.255,3.02-7.31,5.555-10.404c0.225-2.702,2.007-4.721,3.079-7.053
			c0.394-0.856,0.728-1.739,1.088-2.611c-1.105,0.631-2.363,0.89-2.542,2.41c-0.092,0.775-0.8,1.53-1.362,2.18
			c-0.289,0.333-0.868,0.413-1.316,0.607c-0.143-0.464-0.54-1.05-0.385-1.369c0.693-1.438,1.967-2.728,2.226-4.209
			c0.307-1.753,0.259-3.503,1.499-4.965c0.3-0.354,0.341-0.917,0.586-1.334c0.817-1.385,1.714-2.724,2.485-4.133
			c0.188-0.344,0.016-0.886,0.009-1.338c-0.451,0.116-0.939,0.161-1.343,0.371c-0.335,0.173-0.534,0.603-0.863,0.8
			c-0.254,0.154-0.761,0.305-0.946,0.305c-0.036,0-0.06-0.006-0.067-0.02c-0.232-0.416-0.466-0.93-0.416-1.377
			c0.051-0.451,0.507-0.841,0.661-1.299c0.85-2.527,3.038-4.358,3.912-6.702c0.951-2.553,2.668-4.468,4.014-6.659
			c1.901-3.095,3.973-6.179,6.482-8.773c1.563-1.617,3.475-2.686,3.554-5.275c0.02-0.648,0.589-1.381,1.088-1.896
			c1.419-1.466,2.235-3.325,3.404-4.928c1.739-2.385,3.875-4.479,5.841-6.696c2.219-0.208,2.898-2.197,3.434-3.684
			c1.274-3.531,4.337-5.389,6.656-7.927c0.102-0.111,0.284-0.15,0.507-0.15c0.462,0,1.103,0.163,1.584,0.183
			c-0.23,0.545-0.435,1.103-0.703,1.628c-0.114,0.224-0.407,0.354-0.532,0.576c-0.077,0.137-0.048,0.486,0.037,0.527
			c0.152,0.072,0.397,0.146,0.565,0.146c0.071,0,0.127-0.014,0.157-0.045c1.161-1.267,2.28-2.571,3.411-3.865
			c0.48,0.48,1.016,0.9,1.391,1.432c0.259,0.365,0.541,0.994,0.396,1.321c-1.432,3.245-1.118,6.855-2.202,10.188
			c-0.452,1.386-0.121,2.926-0.742,4.456c-0.579,1.426-0.176,3.165-0.809,4.817c-0.704,1.838-0.166,4.204-1.018,5.917
			c-0.945,1.898-0.585,3.895-1.28,5.815c-0.772,2.131-1.038,4.556-1.61,6.854c-0.596,2.39-1.257,4.853-1.599,7.253
			c-0.654,4.598-1.942,8.96-3.319,13.338c-1.065,3.386-1.907,6.804-3.515,10.056c-1.166,2.356-2.271,4.978-2.088,7.873
			c0.101,1.605-1.203,3.083-0.783,4.832c0.058,0.24-0.491,0.573-0.601,0.915c-2.181,6.765-4.34,13.537-6.5,20.31
			c-0.178,0.559,0.549,1.643,1.084,1.643c0.006,0,0.012,0,0.017,0c0.08-0.004,0.155-0.006,0.227-0.006
			c0.548,0,0.892,0.137,1.127,0.922c0.145,0.483,0.791,0.744,1.343,0.744c0.365,0,0.688-0.114,0.8-0.353
			c1.199-2.572,3.72-4.392,4.16-7.405c0.082-0.563,0.536-1.123,0.944-1.569c0.146-0.158,0.459-0.206,0.754-0.206
			c0.101,0,0.2,0.006,0.289,0.015c0.138,0.014,0.346,0.399,0.341,0.611c-0.02,0.767-0.055,1.543-0.202,2.293
			c-0.155,0.789-0.445,1.554-0.676,2.327c1.544-0.967,2.783-2.161,3.156-3.583c0.285-1.086,0.711-1.835,1.387-2.624
			c0.731-0.853,1.29-1.853,2.004-2.722c0.195-0.237,0.679-0.302,1.033-0.312c0,0,0.001,0,0.002,0c0.148,0,0.438,0.35,0.435,0.534
			c-0.034,2.422,0.649,5.078-2.061,6.677c-0.11,0.064-0.277,0.194-0.267,0.274c0.048,0.362,0.04,0.849,0.264,1.037
			c0.102,0.087,0.324,0.129,0.536,0.129c0.214,0,0.416-0.043,0.472-0.127c0.811-1.234,1.748-2.454,2.231-3.823
			c0.945-2.679,2.166-5.191,3.583-7.644c0.943-1.631,0.304-3.197-0.735-4.562c-0.555-0.729-1.346-1.277-1.92-1.995
			c-0.27-0.338-0.447-0.917-0.367-1.328c0.16-0.832,0.41-1.693,0.833-2.418c0.554-0.947,1.146-2.056,2.027-2.582
			c0.226-0.136,0.442-0.192,0.651-0.192c0.75,0,1.396,0.747,1.983,1.341c0.204,0.206,0.591,0.341,0.906,0.341
			c0.041,0,0.08-0.002,0.118-0.007c0.443-0.054,1.233-0.327,1.232-0.503c-0.011-2.757,1.729-4.623,3.223-6.622
			c0.142-0.189,0.135-0.528,0.305-0.654c0.653-0.481,0.324-0.845-0.13-1.123c-0.365-0.226-0.835-0.552-1.195-0.552
			c-0.046,0-0.09,0.006-0.131,0.018c-0.689,0.188-1.278,0.719-1.938,1.05c-0.329,0.165-0.667,0.245-0.984,0.245
			c-0.659,0-1.229-0.344-1.447-0.979c-0.162-0.474,0.095-1.087-0.061-1.564c-1.464-4.487-0.951-5.677,3.208-7.17
			c0,0.932-0.046,1.856,0.027,2.772c0.023,0.291,0.331,0.744,0.57,0.788c0.034,0.006,0.07,0.009,0.107,0.009
			c0.293,0,0.664-0.186,0.89-0.392c1.199-1.092,1.625-2.93,1.396-4.059c-0.283-1.402,2.25-2.432,0.461-3.34
			c-0.145-0.073-0.282-0.105-0.412-0.105c-0.871,0-1.452,1.466-2.279,2c-0.257,0.166-0.606,0.35-0.885,0.35
			c-0.046,0-0.09-0.005-0.132-0.016c-0.237-0.062-0.493-0.542-0.514-0.85c-0.064-1.008-0.024-2.021-0.024-3.22
			c0.421,0.108,0.814,0.155,1.188,0.155c2.028,0,3.427-1.39,5.163-1.875c-0.432-0.314-0.645-1.166-1.125-1.166
			c-0.203,0-0.454,0.152-0.789,0.562c-0.369,0.449-0.743,0.916-1.238,0.916c-0.278,0-0.594-0.147-0.969-0.526
			c-0.869-0.881-0.652-1.376,0.037-2.264c0.562-0.725,0.39-2.028,0.964-2.729c0.797-0.975,0.235-3.083,1.341-3.083
			c0.021,0,0.043,0.001,0.066,0.002c1.706,0.12,0.623,2.039,0.907,3.143c0.064,0.247-0.083,0.579,0.032,0.777
			c0.161,0.276,0.469,0.63,0.727,0.642c0.004,0,0.009,0,0.014,0c0.274,0,0.771-0.33,0.787-0.54c0.107-1.513,0.36-2.973,0.666-4.461
			c0.298-1.451,0.359-3.241,1.084-4.312c1.012-1.492,0.534-3.124,1.317-4.657c1.316-2.577,2.072-5.572,2.427-8.47
			c0.353-2.87,0.871-5.438,3.534-7.42c-0.578-0.098-0.947-0.242-1.241-0.242c-0.062,0-0.12,0.006-0.176,0.021
			c-0.169,0.043-0.314,0.062-0.438,0.062c-1.169,0-0.564-1.722-1.466-2.044c-0.164-0.059,1.089-1.202,1.881-1.202
			c0.053,0,0.104,0.005,0.151,0.017c0.786,0.176,1.525,0.562,2.612,0.982c0-2.33,0.028-4.285-0.009-6.238
			c-0.03-1.627,0.639-2.943,1.76-4.022c0.232-0.223,0.485-0.352,0.716-0.352c0.307,0,0.573,0.228,0.692,0.759
			c0.085,0.377-0.136,0.89,0.047,1.164c0.319,0.476,0.844,0.812,1.282,1.209c0.355-0.516,1.046-1.062,1.001-1.537
			c-0.133-1.37,0.255-2.694-0.421-4.172c-0.64-1.398-0.181-3.3-0.205-4.979c2.616-2.328,0.376-4.111-0.682-6.022
			c-0.358-0.647-0.715-1.299-1.125-1.912c-0.627-0.938-1.145-2.039-1.994-2.711c-0.343-0.271-0.675-0.383-0.997-0.383
			c-0.732,0-1.412,0.573-2.033,1.134c0,0-0.001,0.001-0.002,0.001c-0.048,0-0.527-0.665-0.808-0.672
			c-0.311-0.01-0.631-0.064-0.946-0.064c-0.431,0-0.852,0.103-1.224,0.567c-0.74,0.923-1.659,1.701-2.5,2.543
			c-1.531-0.951-2.444-2.21-2.072-4.12c0.252-1.299-0.466-2.117-1.252-3.066C248.91,307.404,247.433,306.666,245.44,306.666
			L245.44,306.666z"/>
	</g>
	<g>
		<path style="fill:none;stroke:#111111;stroke-width:5;stroke-miterlimit:10;" d="M112.422,159.366
			c-1.292,0.918-2.581,1.842-3.883,2.747c-0.194,0.135-0.453,0.18-0.684,0.26c-1.102,0.383-1.265,1.244-1.632,2.292
			c-1.436,4.104-0.333,8.277-0.705,12.391c1.59,1.393,0.487,3.226,0.782,4.831c0.294,1.604,0.627,3.208,0.781,4.828
			c0.327,3.455,0.548,6.918,0.811,10.379c0.01,0.131-0.056,0.316,0.01,0.389c1.425,1.573,0.545,3.486,0.79,5.231
			c0.244,1.744,0.592,3.476,0.773,5.227c0.318,3.057,0.16,6.229,0.95,9.149c0.487,1.799,0.167,3.635,0.749,5.228
			c0.696,1.905,0.638,3.754,0.695,5.656c0.012,0.396-0.164,0.924,0.028,1.169c1.277,1.62,0.244,3.624,0.858,5.209
			c0.686,1.771,0.662,3.485,0.7,5.26c0.012,0.528-0.223,1.269,0.041,1.55c1.163,1.235,0.565,2.708,0.768,4.068
			c0.202,1.354,0.75,2.698,0.717,4.035c-0.035,1.465,0.567,2.697,0.82,4.042c0.398,2.113,0.045,4.534,0.963,6.339
			c1.103,2.17-0.229,4.671,1.453,6.55c0.251,4.399,1.418,8.625,2.351,12.902c0.715,3.281,3.552,10.938,5.609,13.937
			c1.01,1.474,2.578,2.608,3.4,4.159c1.305,2.459,4.073,2.451,5.855,4.013c0.656-0.078,1.314-0.104,1.975-0.104
			c1.352,0,2.709,0.11,4.067,0.11c1.81,0,3.62-0.195,5.415-1.103c0.839-0.425,1.93-1.092,3.11-1.092c1.053,0,2.177,0.531,3.257,2.24
			c-0.425-3.237-0.726-5.527-1.027-7.818c0.273-0.162,0.545-0.325,0.817-0.487c0.229,0.443,0.408,0.923,0.698,1.321
			c0.302,0.415,0.618,0.625,0.946,0.625c0.312,0,0.634-0.189,0.965-0.575c0.43-0.5,1.3-0.915,1.334-1.412
			c0.209-3.015,1.892-6.033,0.53-9.017c-0.668-1.466-0.706-3.025-0.284-4.132c0.472-1.239,0.246-2.581,0.814-3.616
			c0.771-1.406,0.592-2.414,0.042-3.865c-0.413-1.087,0.984-3.017,0.452-3.87c-1.107-1.773-0.521-3.061,0.113-4.59
			c0.374-0.903,0.596-1.878,0.8-2.838c0.207-0.971,0.039-1.889,0.589-2.943c1.225-2.345,2.226-4.749,4.266-6.577
			c0.473-0.423,0.851-1.835,0.655-1.986c-1.948-1.489,0.777-2.789,0.144-4.214c-0.048-0.108,1.153-0.772,1.773-1.177
			c0.173,0.565,0.406,1.121,0.501,1.7c0.085,0.514-0.168,1.15,0.048,1.568c1.553,3.004,2.27,6.244,2.852,9.53
			c0.387,2.191,1.531,4.264,1.757,6.375c0.42,3.921,1.956,7.413,3.354,10.944c1.57,3.966,4.098,7.356,6.802,10.724
			c2.081,2.592,4.335,4.415,7.308,5.399c1.767,0.585,3.507,1.306,5.373,1.306c0.931,0,1.893-0.18,2.904-0.645
			c1.84-0.846,3.814-1.755,5.977-1.755c0.284,0,0.571,0.016,0.861,0.049c0.257,0.03,0.582,0.05,0.902,0.05
			c0.606,0,1.198-0.072,1.289-0.292c0.684-1.645,3.112-1.797,3.295-3.294c0.293-2.394,2.009-4.346,1.742-6.857
			c-0.357-3.354,0.242-6.551,2.023-9.462c0.538-0.879,0.558-1.619-0.129-2.457c-0.279-0.34-0.483-1.168-0.284-1.402
			c1.001-1.178,0.409-3.003,1.874-4.032c1.172-0.823,2.254-1.898,3.07-3.074c0.946-1.362,2.082-2.713,0.64-4.701
			c-1.084-1.496-1.464-3.324-0.218-5.319c0.695-1.112,0.365-2.733,1.934-3.61c1.565-0.875-0.189-2.93,1.159-4.169
			c0.825-0.758,0.327-2.098,0.744-3.229c1.27-3.445,2.276-6.955,3.938-10.285c0.544-1.092,1.912-2.662,0.385-4.432
			c-0.678-0.786,0.22-2.117,1.304-2.375c1.247-0.296,1.342-1.232,1.911-2.056c2.948-4.263,3.136-9.548,5.418-14.036
			c0.106-0.21,0.064-0.536-0.001-0.782c-0.061-0.229-0.245-0.598-0.381-0.601c-0.012,0-0.023,0-0.036,0
			c-0.361,0-0.958,0.098-0.992,0.254c-0.154,0.723-0.272,1.302-0.82,1.302c-0.216,0-0.5-0.09-0.878-0.298
			c-1.043-0.573-2.065-0.999-1.632-2.451c0.544-1.828,1.199-3.689,3.193-4.343c0.991-0.325,0.821-0.937,0.731-1.477
			c-0.118-0.708-0.469-1.384-0.763-2.055c-0.508-1.163-2.014-2.083-1.228-3.557c0.646-1.21,1.551-2.322,2.515-3.308
			c0.68-0.694,1.65-1.104,2.691-1.768c-0.888-0.731-2.329-1.425-2.27-1.952c0.304-2.743-1.412-5.805,1.12-8.24
			c0.108-0.104-0.021-0.604-0.183-0.803c-0.195-0.239-0.543-0.355-0.825-0.526c-0.749,1.245-1.793,1.475-2.898,1.475
			c-0.644,0-1.309-0.078-1.946-0.078c-0.041,0-0.081,0-0.121,0.001c-0.835,0.013-1.445,0.181-2.058,0.827
			c-2.544,2.68-5.335,5.084-6.768,8.711c-0.805,2.038-2.575,3.676-3.547,5.672c-2.262,4.642-4.702,9.177-7.301,13.636
			c-0.54,0.928-0.379,2.335-1.029,3.117c-2.181,2.627-3.237,5.805-4.707,8.781c-2.385,4.829-4.755,9.665-7.146,14.49
			c-0.491,0.99-1.137,1.909-1.565,2.922c-1.045,2.476-1.923,5.007-3.102,7.447c-0.998,2.065-2.426,3.995-2.732,6.415
			c-0.099,0.778-0.766,1.593-1.384,2.158c-0.304,0.277-0.847,0.379-1.349,0.379c-0.15,0-0.297-0.009-0.432-0.025
			c-0.225-0.026-0.477-0.783-0.516-1.225c-0.1-1.131-0.342-2.182-0.664-3.283c-0.379-1.297-0.746-3.076,0.488-4.469
			c0.164-0.185-0.211-1.214-0.309-1.214l0,0c-0.049,0.002-0.097,0.003-0.143,0.003c-1.519,0-0.904-1.214-0.945-1.95
			c-0.023-0.417,0.259-0.904,0.539-1.25c0.012-0.016,0.042-0.022,0.084-0.022c0.212,0,0.732,0.179,0.886,0.384
			c0.672,0.896,1.471,1.226,2.414,1.226c0.492,0,1.023-0.09,1.595-0.237c0-1.148,0.001-2.312,0-3.475
			c-0.001-0.724-0.102-0.952-0.264-0.952c-0.23,0-0.584,0.453-0.96,0.604c-0.113,0.045-0.236,0.063-0.367,0.063
			c-0.452,0-0.991-0.218-1.473-0.292c0.115-0.452,0.125-0.969,0.363-1.343c0.921-1.448,1.237-2.991,1.136-4.699
			c-0.12-2.032,0.105-4.057-0.757-6.041c-0.425-0.978-1.565-5.702-2.049-6.687c-2.347-4.779-6.579-7.922-10.114-11.669
			c-0.145-0.154-0.461-0.146-0.698-0.214c-1.672-0.477-2.819-1.679-3.96-2.884c-1.233-1.3-2.699-1.904-4.479-1.904
			c-0.099,0-0.198,0.001-0.299,0.005c-1.33,0.049-2.664,0.088-3.996,0.088c-1.181,0-2.361-0.031-3.536-0.112
			c-0.133-0.009-0.261-0.014-0.385-0.014c-1.297,0-2.087,0.516-2.911,1.608c-0.89,1.181-2.461,1.867-3.28,3.077
			c-1.993,2.946-2.882,6.456-4.661,9.581c-1.529,2.686-2.444,5.838-3.63,8.785c-0.789,1.963-2.175,3.705-2.715,5.599
			c-0.685,2.403-2.72,4.225-2.678,6.848c0.002,0.092-0.158,0.222-0.271,0.274c-0.539,0.25-1.087,0.479-1.632,0.716
			c-0.11-0.483-0.376-0.993-0.297-1.443c0.147-0.837,0.684-1.629,0.723-2.455c0.106-2.243,0.12-4.499-0.013-6.738
			c-0.041-0.685-0.675-1.335-1.038-2c-0.197,0.072-0.394,0.144-0.591,0.216c0,1.512,0,3.024,0,4.799
			c-1.719-1.552-2.875-2.938-3.12-5.006c-0.231-1.954,1.872-2.272,2.278-3.71c-0.568-0.567-1.182-1.087-1.669-1.705
			c-0.289-0.366-0.646-1.155-0.51-1.291c0.512-0.512,1.172-1.041,1.854-1.177c0.955-0.191,1.57-0.483,1.235-1.048
			c-0.988-1.67-1.383-3.27-0.021-4.935c0.132-0.161,0.151-0.643,0.028-0.748c-1.506-1.282-0.135-3.17-0.85-4.409
			c-1.148-1.992-0.033-4.242-0.887-5.982c-1.083-2.209-0.273-4.356-0.618-6.492c-0.062-0.387,0.158-0.928-0.036-1.166
			c-1.112-1.362-1.256-3.14-0.496-4.317c0.916-1.418-0.273-3.612,1.833-4.464c0.143-0.058,0.124-0.917-0.057-1.289
			c-0.375-0.777-0.897-1.483-1.376-2.208c-0.686-1.036-1.4-2.009-1.5-3.357c-0.101-1.357-0.514-2.688-0.751-4.038
			c-0.096-0.542-0.216-0.719-0.351-0.719c-0.227,0-0.497,0.498-0.767,0.595c-0.201,0.073-0.381,0.114-0.539,0.114
			c-0.389,0-0.644-0.252-0.755-0.914c-0.551-3.282-3.051-5.32-6.171-6.359c-1.688-0.562-3.956-0.007-5.125-2.027
			c-0.123-0.212-0.7-0.169-1.068-0.23c-0.221-0.037-0.445-0.05-0.671-0.05c-0.605,0-1.224,0.096-1.83,0.096
			C113.724,160.041,113.044,159.914,112.422,159.366L112.422,159.366z"/>
	</g>
	<g>
		<path style="fill:none;stroke:#111111;stroke-width:5;stroke-miterlimit:10;" d="M279.527,125.873
			c-3.323,0-6.646,0.004-9.97,0.014c-2.475,0.008-2.458,0.047-3.013,2.845c-0.093,0.466-0.448,0.875-0.593,1.337
			c-1.395,4.447-2.683,8.929-4.18,13.341c-1.185,3.495-2.041,7.08-3.162,10.587c-0.707,2.211-1.708,4.332-2.338,6.562
			c-1.937,6.849-4.136,13.612-6.375,20.364c-1.041,3.136-2.402,6.201-3.09,9.411c-0.702,3.274-2.105,6.306-2.643,9.676
			c-0.472,2.954-1.473,5.95-2.316,8.907c-0.883,3.092-2.468,6.02-2.261,9.376c-1.642,0.828,0.01,2.869-1.394,3.785
			c-0.857,3.478-2.085,6.916-2.465,10.446c-0.353,3.275-1.622,6.3-1.904,9.61c-0.193,2.25-0.973,4.585-1.387,6.908
			c-0.435,2.443-1.089,4.862-1.488,7.291c-0.603,3.67-0.61,7.438-0.887,11.163c-0.055,0.742-0.238,1.459-0.437,2.18
			c-0.384,1.393-0.094,2.986-0.001,4.492c0.037,0.604,0.448,1.203,0.418,1.791c-0.247,4.797,2.108,8.417,5.164,11.755
			c0.789,0.862,1.54,1.62,2.487,1.62c0.509,0,1.075-0.219,1.733-0.759c0.168-0.138,0.439-0.195,0.747-0.195
			c0.5,0,1.093,0.15,1.489,0.347c0.32,0.158,0.303,1.17,0.285,1.791c-0.019,0.631,0.267,1.248,0.662,1.248
			c0.107,0,0.223-0.045,0.343-0.149c0.293-0.252,0.549-0.337,0.784-0.337c0.487,0,0.882,0.366,1.325,0.366
			c0.022,0,0.044-0.001,0.066-0.003c0.964-0.083,1.886-0.615,2.851-0.72c0.188-0.021,0.37-0.03,0.546-0.03
			c1.689,0,2.807,0.919,2.963,2.343c0.076,0.693-0.366,1.583,0.983,1.665c0.057,0.003,0.112,0.005,0.167,0.005
			c1.04,0,1.651-0.604,1.964-1.354c0.281-0.675-0.056-1.584,0.095-2.347c0.114-0.574,0.435-1.327,0.893-1.575
			c3.419-1.855,5.506-5.14,8.335-7.62c1.07-0.937,2.014-2.09,1.8-3.588c-0.218-1.524,0.264-2.965,1.093-3.893
			c1.08-1.209-0.028-2.732,1.238-3.94c1.177-1.122,2.011-2.878,2.388-4.497c0.51-2.191,2.495-2.917,3.587-4.476
			c0.149-0.214,0.431-0.346,0.543-0.571c0.271-0.545,0.676-1.121,0.68-1.688c0.032-4,2.46-6.651,5.271-8.876
			c3.331-2.637,3.428-2.495,5.102-6.601c0.23-0.564,0.862-0.953,1.241-1.471c0.662-0.906,1.754-1.82,1.813-2.783
			c0.164-2.638,1.901-4.104,3.543-5.689c0.234-0.227,0.367-0.793,0.801-0.793c0.158,0,0.354,0.074,0.61,0.267
			c1.076,0.808,0.075,1.224-0.111,1.789c-0.229,0.695-0.643,1.349-0.765,2.058c-0.831,4.82-1.399,9.68-2.266,14.501
			c-0.375,2.079-0.366,4.361-1.026,6.356c-0.674,2.039-0.668,4.014-0.69,6.049c-0.021,1.982-0.004,3.965-0.004,5.948
			c0,1.189-0.414,2.597,0.077,3.529c1.561,2.964,1.317,6.57,3.53,9.219c0.916-0.806,1.345-1.183,1.812-1.183
			c0.418,0,0.866,0.302,1.718,0.87c0.507,0.338,1.08,0.578,1.631,0.845c0.172,0.083,0.372,0.108,0.559,0.16
			c0.036-0.358,0.221-0.802,0.074-1.054c-0.256-0.442-0.811-0.714-1.06-1.158c-0.208-0.371-0.333-0.961-0.179-1.317
			c0.158-0.363,0.709-0.852,1-0.852c0.021,0,0.039,0.002,0.057,0.007c0.432,0.121,1.096,0.76,1.037,1.06
			c-0.387,2.005,1.619,2.762,2.146,4.307c0.21,0.613,0.707,0.915,1.295,0.915c0.424,0,0.893-0.157,1.336-0.467
			c1.736-1.22,3.367-2.71,5.284-3.516c1.322-0.556,1.382-0.743,0.642-1.778c-1.696-2.369-0.838-5.382-1.881-7.94
			c-0.154-0.375,0.109-0.985,0.312-1.426c1.809-3.952,3.212-8.019,3.632-12.376c1.43-1.049-0.91-2.253,0.107-3.258
			c1.295-1.278,0.812-2.305-0.336-3.273c-0.469-0.395-0.322-0.591-0.117-1.155c0.525-1.431,1.599-2.319,2.609-3.276
			c1.188-1.126,0.998-2.763,1.604-4.106c0.178-0.395-0.617-1.267-1.025-1.88c-0.729-1.092-0.801-1.882,1.047-2.653
			c2.476-1.034,3.062-3.279,3.879-5.158c0.572-1.312,1.174-2.682,1.709-4.047c0.988-2.512,1.938-5.025,2.479-7.714
			c0.453-2.252,1.469-4.4,2.34-6.552c0.254-0.628,1.007-1.653,1.268-1.653c0.011,0,0.02,0.001,0.026,0.004
			c0.41,0.137,0.753,0.197,1.042,0.197c1.738,0,1.526-2.195,2.377-3.14c0.48-0.534,0.862-1.785,1.158-1.785
			c0.004,0,0.009,0,0.014,0.001c0.106,0.015,0.205,0.021,0.295,0.021c1.205,0,0.985-1.235,1.291-1.786
			c0.871-1.576,0.469-7.183-0.305-9.024c-1.424-3.392-2.87-6.776-4.84-9.887c-1.07-1.691-2.098-3.65-3.668-4.729
			c-2.295-1.578-4.695-3.089-7.374-4.152c-1.468-0.583-2.906-0.656-4.347-0.656c-0.484,0-0.969,0.008-1.455,0.008
			c-0.34,0-0.682-0.004-1.024-0.018c-0.216,1.075-2.312,0.231-1.94,1.903c-2.981,3.788-6.061,7.506-8.914,11.388
			c-1.959,2.666-4.189,5.138-6.062,7.817c-2.896,4.14-6.101,8.033-9.198,11.994c-2.433,3.109-4.223,6.784-7.486,9.225
			c-0.592,2.168-2.824,3.008-3.892,4.74c-2.263,3.667-4.304,7.47-6.507,11.176c-1.629,2.74-3.438,5.341-5.833,7.521
			c-0.506,0.46-0.877,0.668-1.272,0.668c-0.372,0-0.765-0.185-1.31-0.518c-0.772-0.474-1.824-0.767-1.815-1.629
			c0.014-1.373-0.737-2.956,0.465-4.128c0.968-0.945,1.003-1.482,0.399-2.879c-0.906-2.095,1.086-3.919,1.936-5.82
			c0.25-0.561,1.095-1.071,1.036-1.522c-0.365-2.782,1.018-5.141,1.638-7.681c0.672-2.748,0.799-5.662,2.62-8.043
			c0.286-0.374,0.442-0.88,0.553-1.35c0.91-3.834,1.945-7.632,3.188-11.372c0.231-0.694,0.929-1.774,0.72-1.983
			c-0.995-0.993-0.157-1.673-0.067-2.598c0.304-3.089,1.991-5.561,3.013-8.313c0.474-1.277,1.02-2.461,1.165-3.903
			c0.27-2.688,0.946-5.463,2.573-7.599c0.979-1.285,1.089-2.45,1.387-3.838c0.562-2.622,0.968-5.443,2.751-7.555
			c3.322-3.938,5.133-8.771,7.979-13c1.521-2.259,3.042-4.543,4.623-6.774c0.527-0.745,1.587-1.223,1.85-2.008
			c0.218-0.652-0.602-1.587-0.564-2.378c0.073-1.515-0.315-3.014,0.365-4.592c0.394-0.915-0.16-2.329-0.544-3.428
			c-0.102-0.293-1.161-0.222-1.753-0.403c-0.105-0.032-0.142-0.497-0.102-0.744c0.099-0.611,0.244-1.215,0.402-1.814
			c0.584-2.217,0.172-2.952-1.771-2.957C286.628,125.878,283.078,125.873,279.527,125.873L279.527,125.873z"/>
	</g>
	<g>
		<path style="fill:none;stroke:#111111;stroke-width:5;stroke-miterlimit:10;" d="M335.904,426.46c-1.299,0-2.489,0.57-3.551,1.443
			c-2.438,2.008-4.853,4.193-6.713,6.721c-3.764,5.11-7.132,10.513-10.693,15.771c-2.033,3.002-3.928,6.128-6.244,8.896
			c-3.314,3.967-5.987,8.354-8.779,12.653c-2.972,4.573-6.296,8.922-8.906,13.74c-0.428,0.791-1.105,1.93-2.638,1.93
			c-0.118,0-0.241-0.007-0.37-0.021c0.229-1.979-0.403-3.846,0.614-5.942c0.675-1.394-0.268-3.512,0.262-5.047
			c0.549-1.589,1.968-2.893,3.07-4.27c1.222-1.529,1.178-3.513,1.92-5.153c1.263-2.793,0.417-5.422-1.388-6.885
			c-2.021-1.639-3.718-3.578-5.718-5.199c-1.282-1.04-2.498-2.195-3.893-3.06c-2.832-1.752-5.652-3.448-9.116-3.448
			c-0.464,0-0.941,0.03-1.431,0.096c-2,0.266-3.587,0.832-5.097,2.138c-3.241,2.804-5.341,6.487-7.774,9.895
			c-2.814,3.938-5.321,8.098-7.991,12.142c-0.157,0.237-0.561,0.459-0.845,0.459c-0.021,0-0.042-0.001-0.062-0.005
			c-0.248-0.031-0.631-0.465-0.631-0.722c-0.002-1.911-0.517-3.97,1.607-5.302c0.424-0.266,0.605-1.062,0.717-1.648
			c0.146-0.756-0.088-1.626,0.186-2.309c0.951-2.368,1.578-4.772,1.421-7.34c-0.049-0.816-0.011-1.573,0.785-2.058
			c0.785-0.478,0.854-1.216,0.819-2.046c-0.05-1.188-0.123-2.392,0.019-3.563c0.145-1.202-0.392-1.917-1.162-2.723
			c-1.414-1.474-2.852-2.893-4.056-4.621c-1.413-2.026-3.211-3.947-5.958-4.602c-1.802-0.429-3.572-0.951-5.322-0.951
			c-1.44,0-2.868,0.354-4.289,1.404c-0.893,0.661-1.459,1.208-1.494,2.419c-0.09,3.071-0.109,6.111-0.585,9.216
			c-0.7,4.562,0.009,9.294-0.909,13.935c-0.466,2.352,0.43,4.903-0.85,7.193c0.491,3.909-0.777,7.704-0.759,11.569
			c0.016,3.494-1.401,6.854-0.831,10.379c0.021,0.129,0.06,0.317-0.006,0.389c-1.453,1.569-0.516,3.491-0.78,5.231
			c-0.284,1.871-0.588,3.74-0.784,5.622c-0.25,2.403-0.125,4.779-0.636,7.239c-0.72,3.468-0.289,7.146-0.847,10.759
			c-0.54,3.484-0.089,7.12-0.129,10.688c-0.018,1.603,0.302,3.067,1.574,4.1c0.958,0.776,2.016,1.478,3.124,2.019
			c1.366,0.667,3.319,1.123,3.601,2.515c0.463,2.291,2.78,0.888,3.467,2.272c0.314-0.16,0.722-0.243,0.926-0.493
			c1.072-1.312,1.576-1.933,2.13-1.933c0.496,0,1.033,0.497,2.053,1.44c0.291,0.27,0.541,0.589,0.858,0.817
			c0.007,0.005,0.018,0.008,0.032,0.008c0.124,0,0.477-0.201,0.469-0.261c-0.175-1.253,0.659-1.095,1.471-1.191
			c1.487-0.178,3.338-0.057,4.323-0.896c0.934-0.798,0.709-2.809,1.423-4.035c1.346-2.312,2.356-4.654,2.352-7.363
			c1.232-0.898,0.849-1.691-0.14-2.479c-0.682-0.545-0.942-1.067-0.271-1.943c0.494-0.645,0.605-1.585,0.882-2.396
			c1.626-4.743,3.214-9.498,4.917-14.216c1.498-4.153,3.032-8.289,5.007-12.2c0.898-1.778,1.552-3.608,2.227-5.432
			c0.713-1.925,1.359-3.812,2.931-5.46c1.148,2.969,2.114,5.693,1.862,8.65c-0.184,2.145-0.622,4.271-0.749,6.416
			c-0.132,2.239-0.029,4.493-0.029,6.74c0,0.265,0.114,0.647-0.018,0.774c-1.561,1.486-0.114,3.587-1.039,5.127
			c-1.046,1.741-0.32,3.567-0.503,5.341c-0.135,1.309,0.094,2.653-0.049,3.961c-0.364,3.312,0.609,6.191,2.375,8.949
			c1.124,1.757,2.581,2.978,4.256,4.209c2.086,1.534,4.257,1.942,6.461,1.942c2.036,0,4.101-0.349,6.152-0.479
			c0.492-0.031,0.968-0.771,1.396-1.233c0.288-0.312,0.525-1.028,0.708-1.028c0.003,0,0.006,0.001,0.01,0.001
			c0.448,0.062,0.944,0.38,1.245,0.742c0.366,0.439,0.552,1.031,0.815,1.557c0.25-0.884,0.035-1.661-0.065-2.454
			c-0.089-0.707-0.306-1.555-0.028-2.125c1.681-3.444,2.587-7.135,3.767-10.745c0.542-1.66,0.914-2.984,0.222-4.66
			c-0.343-0.832-0.327-2.065,0.037-2.895c2.848-6.487,4.909-13.312,8.334-19.554c0.133-0.239-0.146-0.701-0.231-1.059
			c-0.28,0.196-0.669,0.331-0.822,0.6c-0.729,1.277-1.459,2.562-2.059,3.904c-0.351,0.785-0.722,1.706-1.466,1.706
			c-0.182,0-0.383-0.054-0.612-0.177c-1.029-0.553,0.455-1.316,0.401-1.853c-0.228-2.283,0.619-4.228,1.688-6.073
			c0.814-1.407,1.406-2.846,1.852-4.401c0.164-0.577,0.899-1.065,0.18-1.607c-0.043-0.032-0.102-0.046-0.167-0.046
			c-0.294,0-0.781,0.264-1.153,0.327c-0.445,0.077-0.902,0.096-1.354,0.139c0.064-0.45,0.016-0.963,0.213-1.344
			c2.38-4.572,4.463-9.292,7.211-13.686c1.066-1.708,1.886-3.521,3.408-4.934c1.295-1.203,3.002-2.239,2.522-4.525
			c-0.067-0.324,0.569-0.785,0.856-1.199c0.57-0.819,1.152-1.632,1.681-2.479c1.405-2.257,2.755-4.54,4.753-6.372
			c0.836-0.765,1.675-1.662,2.139-2.672c1.412-3.074,3.452-5.612,6.034-7.753c0.429,0.405,0.638,0.604,0.925,0.604
			c0.274,0,0.62-0.181,1.297-0.531c0.239-0.124,0.486-0.183,0.725-0.183c0.724,0,1.354,0.532,1.367,1.327
			c0.025,1.321,0.459,2.879-0.08,3.92c-1.424,2.74-0.188,5.748-1.365,8.565c-0.779,1.866-0.164,4.212-0.809,6.394
			c-0.59,2-0.125,4.245-0.824,6.406c-0.608,1.878,0.027,3.96-0.747,6.037c-0.671,1.796-0.481,3.971-0.796,5.987
			c-0.543,3.479-1.206,6.941-1.746,10.423c-0.264,1.7-0.653,3.419-1.276,5.017c-1.005,2.577-1.87,5.138-1.889,7.949
			c-0.015,2.282-0.386,4.671-1.024,6.722c-1.568,5.037-2.345,10.311-4.459,15.191c-0.431,0.988-0.193,1.841,1.52,1.915
			c0.425,0.019,0.82,0.036,1.188,0.036c1.288,0,2.211-0.218,2.754-1.379c0.721-1.542,1.221-3.219,1.58-4.887
			c0.141-0.651,0.391-1.069,0.787-1.069c0.122,0,0.258,0.039,0.409,0.124c0.362,0.204,1.608,0.48,0.786,1.64
			c-0.37,0.521-0.276,1.368-0.449,2.4c1.71-1.106,2.534-2.081,2.587-3.882c0.033-1.091,1.062-2.174,1.731-3.2
			c0.07-0.107,0.332-0.169,0.582-0.169c0.175,0,0.344,0.028,0.438,0.094c0.781,0.528,1.397,1.237,1.095,2.292
			c-0.099,0.343-0.496,0.616-0.549,0.954c-0.066,0.433,0.077,0.896,0.131,1.35c0.279-0.256,0.717-0.462,0.814-0.774
			c0.705-2.225,1.537-4.437,1.936-6.722c0.305-1.75,0.474-3.725-1.591-4.881c-0.362-0.204-0.752-1.16-0.688-1.212
			c1.245-0.987,0.356-2.52,0.976-3.588c0.186-0.32,0.438-0.872,0.891-0.872c0.217,0,0.479,0.127,0.8,0.467
			c0.528,0.561,1.55,0.654,2.35,0.959c0.291-0.785,0.556-1.581,0.878-2.353c0.376-0.9,0.784-1.791,1.217-2.668
			c0.219-0.441,0.656-0.815,0.748-1.27c0.092-0.462-0.119-0.985-0.197-1.48c-0.45,0.078-0.905,0.143-1.352,0.245
			c-0.109,0.024-0.18,0.188-0.283,0.269c-0.689,0.525-1.191,0.801-1.591,0.801c-0.558,0-0.913-0.537-1.3-1.683
			c-0.792-2.346-0.662-2.315-0.059-4.909c0.265-1.132,0.77-1.955,1.705-1.955c0.058,0,0.115,0.003,0.176,0.009
			c1.033,0.105,0.396,1.29,0.551,1.983c0.057,0.249-0.034,0.56,0.085,0.755c0.108,0.18,0.405,0.314,0.631,0.336
			c0.017,0.001,0.033,0.002,0.052,0.002c0.233,0,0.61-0.114,0.619-0.204c0.186-1.747,1.418-3.295,0.99-5.146
			c-0.079-0.342-0.287-0.654-0.436-0.979c-0.381,0.227-0.787,0.419-1.135,0.688c-0.322,0.248-0.734,0.852-0.873,0.852
			c-0.006,0-0.012-0.001-0.017-0.004c-0.551-0.286-1.147-0.674-1.438-1.188c-0.146-0.26,0.209-0.998,0.539-1.286
			c0.648-0.564,1.424-0.989,2.178-1.421c0.42-0.242,0.938-0.325,1.332-0.595c0.229-0.154,0.304-0.538,0.447-0.817
			c-0.279-0.027-0.567-0.106-0.842-0.106c-0.076,0-0.154,0.007-0.229,0.022c-0.561,0.118-1.094,0.359-1.639,0.549
			c0.014-0.716-0.268-1.687,0.094-2.102c1.256-1.448,1.123-3.264,1.65-4.948c0.295,0.907,0.278,1.79,0.413,2.649
			c0.034,0.228,0.515,0.454,0.828,0.541c0.019,0.005,0.039,0.008,0.062,0.008c0.196,0,0.537-0.179,0.563-0.312
			c0.328-1.591,0.76-3.185,0.845-4.795c0.088-1.66,0.188-3.247,0.786-4.844c0.427-1.137,0.537-2.558,0.974-3.562
			c1.102-2.534,0.184-5.58,2.196-7.844c0.281-0.316,0.461-1.518-0.873-1.67c-1.213-0.142-0.479-1.258-0.612-1.929
			c-0.015-0.069,0.592-0.392,0.924-0.392c0.01,0,0.02,0,0.029,0.001c0.479,0.029,0.849,0.054,1.135,0.054
			c0.943,0,0.969-0.262,1.031-1.442c0.043-0.791,0.106-1.603-0.012-2.376c-0.294-1.907,0.503-3.189,2.153-4.112
			c0.765,0.491-0.416,2.273,0.868,2.273c0.106,0,0.229-0.013,0.373-0.038c1.236-0.228,0.434-1.553,0.56-2.368
			c0.071-0.458-0.063-1.034-0.305-1.438c-0.878-1.47-0.911-3.396-0.241-4.455c1.111-1.762,0.411-2.534-0.65-3.653
			c-0.771-0.811-1.246-1.896-2.004-2.719c-1.021-1.108-1.434-1.551-2.244-1.551c-0.49,0-1.131,0.163-2.143,0.438
			c-0.907,0.246-1.675,1.077-2.454,1.706c-0.356,0.287-0.76,0.423-1.144,0.423c-0.678,0-1.291-0.427-1.465-1.198
			c-0.084-0.378-0.055-0.796-0.006-1.186c0.248-2.014-0.957-2.871-2.523-3.825C337.67,426.71,336.764,426.46,335.904,426.46
			L335.904,426.46z"/>
	</g>
	<g>
		<path style="fill:none;stroke:#111111;stroke-width:5;stroke-miterlimit:10;" d="M330.346,302.154
			c-0.287,0-0.764,0.152-1.091,0.228c-2.549,0.588-3.413,3.01-4.588,4.801c-0.491,0.75-0.761,1.16-1.099,1.16
			c-0.244,0-0.522-0.212-0.946-0.661c-1.146-1.215-2.655-1.809-4.043-2.638c-1.627-0.972-3.382-0.978-4.903-1.616
			c-0.572-0.24-1.098-0.328-1.596-0.328c-1.057,0-1.984,0.393-2.957,0.559c-2.525,0.43-5.15,0.987-7.291,2.428
			c-2.732,1.839-5.298,3.957-7.767,6.146c-2.687,2.379-4.623,5.422-6.77,8.277c-3.991,5.31-8.096,10.51-11.544,16.232
			c-4.067,6.75-8.183,13.445-11.157,20.771c-0.919,2.265-1.99,4.475-2.76,6.786c-0.933,2.797-1.785,5.645-2.367,8.531
			c-0.592,2.938-1.086,5.911-1.535,8.866c-0.558,3.671,0.463,7.511-0.879,10.772c0,0.911-0.204,1.568,0.035,1.944
			c1.196,1.885,0.935,4.103,1.458,6.133c0.292,1.134,0.694,2.053,1.218,3.087c1.356,2.676,3.708,4.143,5.946,5.778
			c2.286,1.671,7.759,3.625,9.981,3.647c1.341,0.015,2.682,0.021,4.023,0.021c1.567,0,3.134-0.009,4.701-0.026
			c0.74-0.008,1.435-0.198,2.181-0.449c2.207-0.743,4.078-1.843,5.716-3.461c4.022-3.972,8.112-7.885,10.739-13.005
			c0.165-0.321,0.309-0.435,0.436-0.435c0.232,0,0.414,0.379,0.584,0.555c0.25,0.258,0.517,0.613,0.552,0.949
			c0.3,2.927,0.538,5.86,0.819,8.79c0.082,0.864-0.389,1.873,0.604,2.522c-0.536,1.838,1.492,2.52,1.812,4.019
			c0.223,1.054,0.58,2.298,1.317,2.984c2.673,2.485,5.694,4.613,9.453,4.613c0.157,0,0.315-0.003,0.476-0.011
			c0.179-0.008,0.351-0.013,0.52-0.013c2.002,0,3.365,0.618,4.434,2.401c0.291,0.488,0.699,0.936,1.188,0.936
			c0.303,0,0.636-0.173,0.99-0.615c0.105-0.13,0.422-0.25,0.58-0.25c0.039,0,0.066,0.007,0.082,0.021
			c0.72,0.688,1.551,0.772,2.397,0.772c0.278,0,0.56-0.009,0.838-0.009c0.397,0,0.794,0.019,1.175,0.111
			c0.26,0.062,0.438,0.565,0.696,0.565c0.106,0,0.228-0.086,0.371-0.324c0.13-0.215-0.074-0.758-0.281-1.031
			c-2.323-3.079-4.222-6.311-5.462-10.05c-0.572-1.729,0.001-3.419-0.645-4.875c-0.717-1.625-0.562-3.227-0.744-4.856
			c-0.311-2.804,0.861-5.732-0.704-8.424c1.407-3.22,0.929-6.422-0.048-9.634c-0.11-0.362-0.174-0.895,0.01-1.168
			c1.447-2.157,0.544-4.553,0.757-6.827c0.312-3.324-0.05-6.847,0.95-9.936c1.346-4.157,0.766-8.729,3.027-12.613
			c0.01-2.94,1.594-5.425,2.442-8.115c0.339-1.068,1.63-1.953-0.562-2.301c-0.148-0.022-0.264-0.667-0.282-1.027
			c-0.104-1.946,0.862-3.619,1.644-5.259c0.584-1.222,0.877-2.673,2.729-3.295c1.387-0.465,2.444-2.111,3.175-3.713
			c1.016-2.229,2.055-4.433,2.78-6.784c0.321-1.041,0.812-2.067,1.409-2.978c0.834-1.265,1.779-2.475,2.802-3.593
			c0.694-0.759,0.392-1.15,0.016-1.967c-0.966-2.102-3.165-3.689-2.733-6.439c0.062-0.397-0.832-0.93-1.256-1.425
			c-0.443-0.522-0.971-0.64-1.512-0.64c-0.447,0-0.904,0.079-1.335,0.079c-0.289,0-0.565-0.035-0.819-0.156
			c-1.135-0.542-0.307-2.535-1.758-3.097c-0.059-0.023-0.123-0.031-0.19-0.031c-0.136,0-0.28,0.03-0.416,0.03
			c-0.062,0-0.121-0.006-0.177-0.024c-0.695-0.229-1.354-0.59-2.061-0.762c-0.169-0.041-0.343-0.053-0.52-0.053
			c-0.24,0-0.485,0.021-0.728,0.021c-0.468,0-0.924-0.082-1.317-0.561C330.525,302.173,330.447,302.154,330.346,302.154
			L330.346,302.154z M314.21,327.497c-0.241,2.871-0.101,4.854-0.705,7.072c-1.233,4.515-3.308,8.729-4.364,13.284
			c-0.445,1.911-1.219,3.745-1.637,5.66c-0.652,2.985-2.879,5.131-3.979,7.874c-0.627,1.561-2.023,2.835-0.557,4.766
			c0.434,0.569,0.432,1.989-0.615,2.832c-1.299,1.043-1.888,2.558-2.627,4.046c-1.324,2.664-2.688,5.387-4.941,7.492
			c-0.417,0.389-0.568,1.063-0.845,1.613c-0.39-0.39-0.731-0.809-1.153-1.118c-0.108-0.079-0.265-0.092-0.431-0.092
			c-0.078,0-0.158,0.002-0.236,0.002c-0.055,0-0.108-0.001-0.159-0.006c0.032,1.589-1.466,2.052-2.263,3.021
			c-0.751,0.914-1.661,1.699-2.505,2.539c-0.936,0.93-1.862,2.599-2.815,2.615c-1.443,0.025-0.95,1.938-2.075,1.938
			c-0.104,0-0.223-0.018-0.357-0.052c-0.011-0.003-0.022-0.004-0.035-0.004c-0.288,0-1.03,0.722-1.012,1.061
			c0.054,1.037-0.413,1.3-0.94,1.3c-0.316,0-0.654-0.094-0.916-0.173c-0.813-0.247-1.589-0.912-1.376-2.053
			c0.413-2.21,0.806-4.424,1.226-6.632c0.068-0.355,0.376-0.707,0.342-1.036c-0.5-4.796,2.059-8.693,4.096-12.579
			c1.878-3.582,3.97-7.038,5.755-10.707c2.809-5.771,6.298-11.215,9.996-16.486c3.078-4.385,6.198-8.758,10.109-12.456
			C310.518,329.963,312.136,329.016,314.21,327.497L314.21,327.497z"/>
	</g>
	<g>
		<path style="fill:none;stroke:#111111;stroke-width:5;stroke-miterlimit:10;" d="M380.533,163.121
			c-1.312,0-2.28,0.521-3.272,1.542c-5.946,6.113-11.979,12.081-16.911,19.157c-3.44,4.934-6.924,9.866-10.478,14.735
			c-0.874,1.198-1.728,2.446-2.367,3.777c-1.666,3.463-4.343,6.278-5.919,9.84c-1.34,3.027-3.667,5.605-5.148,8.585
			c-1.465,2.942-2.176,6.18-3.896,9.113c-1.504,2.563-2.516,5.602-3.215,8.544c-0.717,3.018-2.532,5.641-2.809,8.773
			c-0.111,1.251,0.021,2.772-0.639,3.67c-1.031,1.407-0.322,2.789-0.613,4.137c-0.315,1.463-0.639,2.925-0.939,4.308
			c0.408,2.375,0.583,4.666,1.219,6.823c1.281,4.351,3.598,8.208,6.721,11.471c2.541,2.655,4.603,5.764,7.729,7.9
			c0.819,0.561,1.405,1.225,2.208,1.225c0.374,0,0.794-0.144,1.307-0.508c0.106-0.075,0.245-0.106,0.406-0.106
			c0.576,0,1.436,0.393,2.098,0.548c1.443,0.339,2.787,0.862,4.092,1.632c0.434,0.256,0.926,0.302,1.437,0.302
			c0.294,0,0.593-0.015,0.892-0.015c0.721,0,1.435,0.088,2.041,0.693c0.073,0.073,0.199,0.101,0.354,0.101
			c0.333,0,0.797-0.131,1.128-0.224c1.18-0.33,2.35-0.705,3.503-1.115c1.156-0.412,2.163-1.072,3.483-1.257
			c0.771-0.107,2.554-0.675,2.05-2.558c-0.12-0.45,0.344-1.209,0.746-1.625c4.004-4.119,8.247-8.01,11.774-12.58
			c0.771-1.001,1.961-1.633,1.791-3.275c-0.064-0.621,0.78-1.441,1.369-2.005c2.445-2.344,5.18-4.429,7.363-6.987
			c1.833-2.146,3.74-4.554,3.079-7.817c-0.195-0.961,0.562-1.665,0.726-2.461c0.67-3.229,1.006-6.538,4.018-8.678
			c0.244-0.174,0.259-0.67,0.383-1.016c0.434-1.215,0.627-2.562,2.179-3.04c0.312-0.096,0.562-0.827,0.602-1.285
			c0.089-1.05-0.323-2.304,0.122-3.119c0.485-0.889,1.743-1.333,2.6-2.049c0.708-0.591,1.612-1.185,1.91-1.974
			c0.537-1.425,1.781-2.844,0.483-4.589c-0.341-0.46-0.337-1.61,0.009-2.071c1.343-1.803-1.361-2.759-0.866-3.815
			c0.666-1.424,2.391-2.148,2.192-4.292c-0.257-2.785-0.891-5.392-2.052-7.9c-0.925-1.998-1.826-4.008-2.822-5.97
			c-0.447-0.882-1.061-1.692-1.671-2.479c-1.941-2.508-3.928-4.982-5.867-7.492c-0.213-0.274-0.4-0.74-0.31-1.022
			c0.077-0.238,0.563-0.429,0.894-0.479c0.273-0.042,0.558-0.065,0.84-0.065c0.25,0,0.5,0.018,0.74,0.056
			c0.213,0.033,0.414,0.049,0.604,0.049c2.001,0,2.894-1.726,3.953-3.069c0.235-0.3,0.377-1.249-0.705-1.834
			c-2.04-1.102-2.066-1.811-1.105-3.992c0.346-0.783,0.813-1.527,1.039-2.34c0.117-0.423-0.022-1.225-0.312-1.388
			c-0.192-0.109-0.381-0.166-0.551-0.166c-0.386,0-0.68,0.293-0.721,0.952c-0.016,0.237-0.461,0.614-0.72,0.625
			c-0.003,0-0.006,0-0.01,0c-0.273,0-0.808-0.394-0.783-0.538c0.521-3.083-1.929-4.765-3.112-7.072
			c-1.063-2.07-2.742-2.649-4.552-3.492c-1.388-0.646-2.802-0.729-4.221-0.729c-0.479,0-0.96,0.009-1.44,0.009
			c-0.521,0-1.043-0.011-1.562-0.057C380.855,163.128,380.691,163.121,380.533,163.121L380.533,163.121z M353.855,262.394
			c-1.271,0-2.551-0.629-3.849-1.88c-0.942-0.909-1.536-1.816-0.481-2.989c0.576-0.644-0.004-1.083-0.092-1.651
			c-0.291-1.912-0.451-3.887-0.285-5.806c0.074-0.869,0.922-1.767,1.607-2.464c1.073-1.091,2.92-1.606,2.333-3.775
			c-0.075-0.277,0.58-0.807,0.966-1.141c0.762-0.66,0.805-1.248,0.022-1.929c-1.396-1.212-0.979-2.452-0.511-4.086
			c0.742-2.589,2.875-4.063,4.108-6.228c1.124-1.971,2.856-3.614,4.423-5.309c1.612-1.746,3.348-3.378,5.209-5.24
			c-1.611-1.77-1.265-1.62-0.351-3.732c1.38-3.191,4.61-2.945,6.924-4.355c0.017-0.009,0.034-0.014,0.058-0.014
			c0.217,0,0.736,0.425,1.028,0.694c1.087,1.002,1.925,2.358,3.601,2.358c0.199,0,0.412-0.02,0.638-0.061
			c0.019-0.003,0.038-0.005,0.058-0.005c0.682,0,1.647,2.1,1.323,2.923c-1.261,3.211-1.397,6.753-2.942,9.882
			c-0.158,0.321,0.06,0.966-0.144,1.104c-1.944,1.339-2.274,3.629-2.958,5.533c-1.773,4.942-5.071,9-7.561,13.5
			c-2.209,3.991-5.01,7.801-7.963,11.39c-0.418,0.508-0.928,0.939-1.396,1.408C356.375,261.771,355.121,262.394,353.855,262.394
			L353.855,262.394z"/>
	</g>
	<g>
		<path style="fill:none;stroke:#111111;stroke-width:5;stroke-miterlimit:10;" d="M375.605,424.808
			c-1.699,0-3.422,0.401-5.17,1.391c-0.125,0.071-0.345,0.151-0.467,0.151c-0.033,0-0.062-0.007-0.076-0.021
			c-0.502-0.528-0.867-0.729-1.14-0.729c-0.713,0-0.789,1.37-1.017,1.803c-3.03,5.737-5.277,11.822-7.817,17.773
			c-2.502,5.861-3.177,11.957-4.429,17.983c-0.961,4.616,0.863,9.246,0.816,13.935c-0.02,1.86,0.893,3.833,1.748,5.575
			c1.049,2.135,2.512,4.032,4.113,5.854c3.089,3.514,7.234,5.576,10.874,8.323c0.367,0.277,1.071,0.448,1.665,0.448
			c0.381,0,0.716-0.07,0.889-0.229c0.529-0.486,0.979-0.668,1.381-0.668c0.975,0,1.66,1.069,2.494,1.482
			c0.303,0.151,0.594,0.99,0.443,1.288c-0.999,1.979-1.266,4.371-3.303,5.796c-0.586,0.411-0.991,1.146-1.354,1.799
			c-1.729,3.114-3.351,6.289-5.131,9.373c-2.651,4.596-5.286,9.21-8.151,13.673c-2.834,4.414-6.11,8.548-8.894,12.991
			c-2.69,4.297-6.362,7.822-9.054,12.1c-0.293,0.465-0.993,0.798-1.565,0.937c-1.457,0.353-2.965,0.487-4.418,0.851
			c-0.815,0.202-1.907,0.478-2.269,1.081c-0.685,1.147-1.557,2.514-0.946,3.919c0.585,1.354,0.162,3.27,1.598,4.047
			c1.29,0.695,2.062,1.539,2.804,2.773c0.6,0.996,1.848,1.961,2.972,2.218c2.249,0.514,4.524,1.118,6.812,1.118
			c1.448,0,2.901-0.243,4.354-0.908c1.174-0.537,2.385-0.824,3.646-0.824c0.26,0,0.521,0.013,0.786,0.037
			c0.113,0.011,0.222,0.016,0.325,0.016c1.186,0,1.764-0.682,2.082-1.903c0.273-1.05,0.775-2.065,1.33-3.008
			c0.258-0.438,0.597-0.703,0.975-0.703c0.289,0,0.604,0.159,0.918,0.521c0.344,0.394,0.711,0.767,1.068,1.147
			c0.182-0.142,0.359-0.284,0.54-0.426c-0.188-0.42-0.331-0.867-0.572-1.254c-0.541-0.87-0.672-1.751,0.189-2.419
			c2.903-2.254,4.302-5.699,6.69-8.364c0.709-0.793,1.125-1.903,1.492-2.934c0.398-1.125-0.738-1.551-1.297-2.217
			c-0.584-0.699-0.287-1.283,0.324-1.609c0.637-0.34,1.393-0.475,2.109-0.644c3.531-0.833,6.026-3.764,5.965-6.443
			c-0.055-2.366,1.785-3.521,2.654-5.274c2.204-0.332,2.184-2.409,3.076-3.805c0.654-1.021,1.395-1.513-0.484-2.044
			c-0.918-0.262-0.543-1.925,0.446-2.271c2.255-0.791,2.278-0.835,3.939-3.594c0.265-0.439,0.706-1.044,1.11-1.08
			c1.545-0.137,2.021-1.545,3.028-2.299c0.812-0.609,0.688-1.15,0.05-1.935c-1.349-1.654-1.271-1.698,0.371-3.254
			c0.364-0.345,0.618-0.803,0.948-1.188c0.729-0.849,1.331-2.146,2.24-2.425c2.051-0.626,0.098-2.447,1.248-3.213
			c0.432-0.287,0.776-0.717,1.128-1.111c0.852-0.964,1.631-1.996,2.535-2.905c0.853-0.854,1.806-1.613,2.754-2.365
			c1.408-1.115,1.252-2.927,1.992-4.335c-1.654-1.562-0.868-2.541,0.793-3.309c-0.438-1.814,1.157-2.455,2.019-3.529
			c0.869-1.084,1.716-2.188,2.511-3.327c0.184-0.263,0.288-0.866,0.132-1.03c-0.827-0.868-1.185-1.754-0.284-2.727
			c0.679-0.73,1.291-1.656,2.396-1.656c0.158,0,0.326,0.021,0.506,0.062c0.147,0.034,0.293,0.05,0.436,0.05
			c0.931,0,1.688-0.676,1.719-1.285c0.104-2.192,2.104-2.562,3.144-3.822c0.717-0.869,1.458-1.762,1.95-2.76
			c2.245-4.55,5.069-8.752,7.707-13.063c0.786-1.284,1.656-2.579,2.751-3.584c0.53-0.488,1.579-0.285,2.434-0.801
			c0.937-0.565,3.305,0.344,1.27-2.053c-0.168-0.197,0.091-0.986,0.373-1.3c1.064-1.174,2.191-2.297,3.362-3.365
			c0.271-0.247,0.897-0.5,1.174-0.5c0.056,0,0.098,0.011,0.118,0.033c0.537,0.59,0.941,0.813,1.256,0.813
			c0.74,0,0.964-1.252,1.198-1.845c0.506-1.275,1.42-2.104,2.312-3.007c0.579-0.584,0.532-1.103-0.045-1.642
			c-0.387-0.36-0.956-0.684-1.091-1.129c-1.028-3.403-3.174-5.754-6.089-7.793c-1.894-1.324-3.441-3.01-5.883-3.01
			c-0.144,0-0.291,0.007-0.441,0.02c-0.766-0.664-1.597-0.827-2.449-0.827c-0.825,0-1.67,0.153-2.495,0.153
			c-0.235,0-0.472-0.014-0.704-0.045c-0.16-0.022-0.312-0.033-0.459-0.033c-2.094,0-2.742,2.191-4.152,3.228
			c-2.957,2.174-4.939,5.339-6.609,8.374c-4.271,7.771-9.602,14.735-15.36,21.348c-3.752,4.308-8.226,8.007-12.521,11.814
			c-2.034,1.805-4.795,2.598-6.896,4.409c-0.164,0.144-0.357,0.205-0.556,0.205c-0.612,0-1.269-0.605-1.278-1.312
			c-0.025-1.585,0.092-3.181-0.037-4.757c-0.119-1.463,0.957-3.472-1.557-4.036c0.451-2.211-0.891-4.604,1.068-6.729
			c1.09-1.18,1.49-3.016,0.285-4.542c-0.594-0.752-0.688-1.157-0.086-1.979c0.39-0.535,0.363-1.484,0.293-2.228
			c-0.178-1.87,0.527-3.379,1.387-4.999c1.193-2.255,3.062-3.73,4.918-5.299c1.377-1.164,3.193-2.171,3.893-3.676
			c0.682-1.475-0.168-3.543,0.937-5.157c-1.265-1.562-0.524-3.912-2.532-5.367c-1.534-1.112-3.08-2.159-4.758-2.956
			C380.596,425.688,378.125,424.808,375.605,424.808L375.605,424.808z"/>
	</g>
	<g>
		<path style="fill:none;stroke:#111111;stroke-width:5;stroke-miterlimit:10;" d="M529.112,482.83
			c-3.839,0-7.618,0.872-11.432,1.529c-4.688,0.807-9.126,2.168-13.382,4.136c-1.452,0.672-3.201,0.988-4.317,1.926
			c-1.457,1.225-3.312,1.139-4.697,2.158c-4.599,3.384-9.936,5.46-14.782,8.429c-3.928,2.404-7.508,5.296-11.492,7.604
			c-1.438,0.833-2.582,2.274-3.658,3.604c-2.704,3.338-2.459,5.362,0.39,8.465c1.864,2.033,4.49,2.667,6.643,4.145
			c0.146,0.101,0.278,0.146,0.399,0.146c0.354,0,0.616-0.39,0.906-0.931c0.562-1.049,0.879-1.528,1.3-1.528
			c0.348,0,0.766,0.329,1.452,0.938c0.45,0.397,0.796,0.604,1.146,0.604c0.332,0,0.67-0.184,1.109-0.562
			c1.121-0.969,1.727-2.473,3.685-2.656c1.32-0.124,2.435-1.737,3.806-2.194c3.027-1.012,5.938-2.257,8.832-3.584
			c2.561-1.175,5.238-2.096,7.604-3.67c0.216-0.143,0.354-0.494,0.568-0.536c3.217-0.613,5.788-2.633,8.688-3.928
			c2.188-0.977,4.442-1.803,6.666-2.695c0.104,0.15,0.209,0.302,0.313,0.451c-0.811,0.811-1.618,1.619-2.544,2.546
			c0.498,0.114,0.808,0.258,0.981,0.258c0.041,0,0.074-0.008,0.103-0.024c2.479-1.618,5.469-2.293,7.777-4.259
			c0.469-0.397,1.396-0.256,2.112-0.361c-0.003,0.716,0.231,1.548-0.05,2.128c-1.313,2.709-2.75,5.358-5.003,7.453
			c-0.871,0.81-1.922,1.545-2.487,2.542c-2.048,3.617-5.333,6.088-8.28,8.788c-1.274,1.168-2.728,2.291-4.042,3.493
			c-1.268,1.157-2.404,2.459-3.667,3.622c-1.251,1.152-1.855,2.94-3.588,3.608c-2.571,4.402-6.518,7.905-8.342,12.81
			c-0.252,0.679-1.023,1.146-1.465,1.773c-1.371,1.955-2.562,3.935-2.508,6.512c0.062,2.941,0.107,5.854-0.646,8.82
			c-0.749,2.94-0.633,6.102-0.901,9.163c-0.033,0.377-0.066,0.76-0.166,1.122c-1.29,4.749-0.815,8.815,1.547,13.118
			c0.727,1.323,3.225,3.008,4.802,3.008c0.222,0,0.426-0.033,0.604-0.104c1.894-0.77,3.759-0.583,5.651-0.751
			c0.554-0.05,1.197-0.478,1.568-0.925c0.709-0.855,1.304-1.819,1.854-2.792c1.43-2.527,3.36-5.012,5.168-5.648
			c0.949-0.335,0.902-0.785,1.256-1.46c1.825-3.484,1.89-7.649,4.483-10.871c1.014-1.259,1.465-3.128,1.74-4.79
			c0.431-2.601,1.611-4.655,3.357-6.566c3.046-3.334,6.924-5.546,10.469-8.222c4.053-3.058,8.462-5.686,11.985-9.423
			c0.537-0.57,1.061-1.21,1.718-1.603c4.786-2.85,7.805-7.312,10.18-12.057c1.757-3.508,2.684-7.488,2.795-11.52
			c0.066-2.512,0.018-5.024,0.011-7.536c-0.009-3.304-0.134-6.454-1.454-9.709c-1.977-4.872-4.949-8.522-9.606-10.734
			c-4.071-1.935-8.515-2.725-12.954-3.152C530.579,482.861,529.845,482.83,529.112,482.83L529.112,482.83z"/>
	</g>
	<g>
		<path style="fill:none;stroke:#111111;stroke-width:5;stroke-miterlimit:10;" d="M84.882,576.57c-2.311,0-5.012,0.301-6.673,0.527
			c-2.553,0.351-3.979,2.019-5.791,3.344c-2.841,2.078-5.755,4.018-7.716,7.083c-2.397,3.745-5.135,7.279-6.722,11.5
			c-0.215,0.569-0.562,1.089-0.831,1.64c-0.807,1.648-1.651,3.28-2.397,4.956c-0.844,1.896-1.446,3.915-2.418,5.738
			c-3.761,7.052-5.358,14.789-7.02,22.464c-0.74,3.415-1.306,6.965-1.548,10.438c-0.297,4.248-1.463,8.437-0.96,12.756
			c0.212,1.827,0.035,3.698,0.035,5.551c0,3.568-0.022,7.14,0.017,10.71c0.009,0.863,0.128,1.685,0.435,2.582
			c0.594,1.739,0.726,3.636,1.929,5.157c-0.347,2.987,1.81,4.854,3.276,6.96c0.936,1.347,2.205,2.416,2.311,4.226
			c0.025,0.438,0.445,0.87,0.729,1.271c1.562,2.196,3.332,4.188,5.178,6.171c3.142,3.374,7.47,4.499,11.118,6.856
			c0.197,0.127,0.606,0.301,1.004,0.301c0.485,0,0.955-0.258,1.005-1.171c0.007-0.12,0.429-0.217,0.659-0.325
			c0.329,0.785,1.884,0.083,1.738,1.615c-0.145,1.514,0.788,2.078,2.038,2.078c0.166,0,0.337-0.011,0.513-0.029
			c0.121-0.013,0.242-0.019,0.365-0.019c0.413,0,0.833,0.058,1.249,0.058c0.598,0,1.184-0.118,1.715-0.692
			c0.109-0.118,0.358-0.172,0.643-0.172c0.407,0,0.887,0.108,1.14,0.29c0.6,0.432,1.151,0.615,1.708,0.615
			c0.591,0,1.187-0.208,1.85-0.552c1.088-0.563,2.63-0.399,3.216-1.742c0.581-1.332,1.796-1.936,2.812-2.711
			c2.079-1.585,5.108-2.283,4.938-5.78c-0.004-0.089,0.164-0.202,0.27-0.276c1.732-1.237,2.08-3.514,3.439-4.881
			c1.888-1.897,1.458-4.461,2.576-6.52c0.169-0.312-0.091-1.027-0.372-1.384c-0.847-1.073-2.188-1.663-3.546-1.663
			c-1.017,0-2.044,0.331-2.88,1.038c-0.315,0.267-0.587,0.365-0.814,0.365c-0.565,0-0.854-0.612-0.839-0.785
			c0.175-1.907-0.761-2.179-1.867-2.179c-0.375,0-0.77,0.031-1.148,0.04c-0.023,0.001-0.046,0.001-0.068,0.001
			c-0.884,0-1.622-0.418-2.395-0.614c-0.041-0.012-0.083-0.017-0.126-0.017c-0.658,0-1.526,1.159-2.386,1.363
			c-2.533,0.602-4.782,1.891-7.216,2.707c-0.53,0.177-1.287,0.485-1.757,0.485c-0.141,0-0.256-0.027-0.331-0.096
			c-1.716-1.521-3.886-2.97-4.275-5.309c-0.621-3.728-1.978-7.347-1.702-11.232c0.168-2.368-0.481-4.915,0.184-7.091
			c0.596-1.947,0.589-3.779,0.611-5.669c0.024-2.054,1.029-3.896,0.909-6.021c-0.103-1.83,0.321-3.774,0.901-5.541
			c1.033-3.146,1.386-6.527,3.005-9.457c1.547-2.8,1.814-6.072,3.853-8.752c1.828-2.402,2.89-5.386,4.323-8.095
			c0.405-0.766,0.949-1.455,1.389-2.203c2.153-3.668,5.612-6.139,8.446-9.181c0.372-0.397,1.107-0.584,1.695-0.636
			c0.263-0.023,0.554-0.035,0.87-0.035c2.539,0.001,6.579,0.729,8.772,1.627c0.341,0.141,0.721,0.667,0.736,1.03
			c0.037,0.825,0.146,1.352,0.639,1.352c0.227,0,0.535-0.11,0.955-0.355c0.94-0.547,1.993-1.021,3.052-1.21
			c0.936-0.167,0.959-0.615,0.951-1.313c-0.021-1.718-0.045-3.438,0.008-5.155c0.031-1.016-0.027-2.133,0.376-3.01
			c0.496-1.077,0.212-1.723-0.168-2.769c-1.188-3.268-3.603-5.679-5.495-8.418c-1.897-2.747-4.28-5.205-6.702-7.528
			c-1.503-1.443-3.108-2.9-5.524-2.9c-0.143,0-0.288,0.006-0.437,0.017c-0.082,0.006-0.164,0.009-0.247,0.009
			c-1.315,0-2.686-0.708-4.018-1.105C87.278,576.659,86.138,576.57,84.882,576.57L84.882,576.57z"/>
	</g>
	<g>
		<path style="fill:none;stroke:#111111;stroke-width:5;stroke-miterlimit:10;" d="M150.172,523.688
			c-0.052,0-0.102,0.008-0.149,0.023c-1.84,0.649-3.82,1.18-5.37,2.284c-1.244,0.887-3.053,1.834-2.646,3.998
			c-1.704,3.054-2.032,6.556-3.201,9.778c-0.969,2.67-1.728,5.372-2.476,8.108c-1.037,3.795-1.612,7.726-3.056,11.406
			c-0.49,1.249-1.268,2.427-1.54,3.716c-0.768,3.643-1.561,7.278-2.419,10.901c-0.542,2.289-0.916,4.63-1.629,6.861
			c-0.713,2.232-1.542,4.396-1.925,6.747c-0.434,2.664-1.424,5.234-1.975,7.887c-0.809,3.895-2.06,7.669-2.604,11.657
			c-0.31,2.27-1.044,4.567-1.498,6.896c-0.473,2.425-1.037,4.849-1.549,7.278c-0.34,1.613-0.335,3.368-0.867,4.786
			c-0.612,1.637-0.847,3.34-1.372,4.972c-0.57,1.774-0.19,3.923-0.977,5.541c-0.793,1.632-0.387,3.25-0.857,4.808
			c-0.648,2.146-1.23,4.298-1.43,6.553c-0.178,2.009-0.219,4.112-0.883,5.976c-1.409,3.953-1.921,8.02-2.272,12.142
			c-0.043,0.504,0.067,1.208-0.216,1.475c-1.091,1.017-0.333,2.254-0.574,3.353c-0.266,1.213-0.798,2.438-0.74,3.636
			c0.136,2.804-0.742,5.688,0.691,8.423c0.326,0.622,0.355,1.766-0.009,2.315c-1.12,1.691-0.559,3.505-0.746,5.26
			c-0.173,1.621,0.211,3.203-0.653,4.896c-0.625,1.224-0.039,3.065,0.007,4.633c2.51,0.646,1.114,2.688,1.422,4.097
			c0.288,1.316-0.29,2.756,0.374,4.274c0.707-1.483,1.461-2.646,1.259-4.146c-0.181-1.345,0.696-2.361,1.412-3.358
			c0.245-0.342,0.864-0.412,1.312-0.607c0.143,0.331,0.397,0.657,0.412,0.993c0.104,2.425-0.745,4.695-1.292,6.999
			c-0.322,1.355-0.368,2.558,0.068,4.153c0.792-1.69,1.308-3.083,2.062-4.332c0.933-1.545,1.154-3.043,0.341-4.666
			c-0.11-0.221-0.396-0.485-0.34-0.63c0.174-0.454,0.444-0.882,0.729-1.28c0.167-0.233,0.306-0.319,0.428-0.319
			c0.264,0.001,0.453,0.396,0.688,0.558c0.518,0.354,1.044,0.69,1.566,1.034c-0.649,0.649-0.958,0.907-1.201,1.218
			c-0.193,0.245-0.5,0.708-0.421,0.807c0.275,0.344,0.939,0.853,1.037,0.853c0.004,0,0.007-0.001,0.009-0.003
			c0.538-0.521,1.004-0.724,1.431-0.724c0.8,0,1.458,0.714,2.181,1.376c0.296,0.271,0.566,0.402,0.791,0.402
			c0.383,0,0.635-0.383,0.666-1.104c0.011-0.265-0.101-0.604,0.025-0.776c0.187-0.253,0.533-0.545,0.803-0.545
			c0.006,0,0.012,0,0.018,0c0.257,0.014,0.693,0.396,0.708,0.64c0.074,1.185-0.007,2.38,0.075,3.562
			c0.013,0.189,0.552,0.414,0.878,0.482c0.014,0.003,0.029,0.004,0.045,0.004c0.195,0,0.542-0.203,0.566-0.345
			c0.313-1.861,0.719-3.728,0.8-5.604c0.056-1.303,0.311-2.45,0.797-3.653c0.514-1.27,0.016-2.658,0.537-4.131
			c1.029-2.904,1.414-6.062,1.841-9.146c0.206-1.486,0.459-2.514,2.22-2.522c0.335-0.002,0.906-0.464,0.961-0.784
			c0.27-1.546,0.399-3.113,0.592-4.787c-0.703,0.604-1.292,1.111-2.197,1.89c0.214-3.239,0.116-5.859,0.691-8.57
			c0.513-2.421,1.244-4.562,2.698-6.434c0.728-0.938,0.835-1.481-0.073-2.244c-0.37-0.312-0.812-0.788-0.84-1.215
			c-0.143-2.182-0.215-4.358,1.604-6.068c0.718-0.675,1.746-1.192,1.56-2.531c-0.108-0.778-0.303-1.812,0.903-1.812
			c0.094,0,0.197,0.006,0.309,0.021c-0.063-0.247-0.051-0.567-0.205-0.729c-0.295-0.309-1.006-0.553-0.987-0.779
			c0.299-3.686,0.458-7.41,1.165-11.023c0.281-1.44-0.086-3.479,1.831-4.403c0.179-0.087,0.128-0.724,0.125-1.104
			c-0.042-4.087,0.776-8.061,1.593-12.031c0.526-2.559,1.122-5.104,1.548-7.676c0.131-0.79,0.323-1.102,1.07-1.102
			c0.032,0,0.065,0.001,0.099,0.002c0.04,0.001,0.08,0.002,0.12,0.002c0.585,0,1.175-0.146,1.763-0.22
			c-0.175-0.545-0.396-1.08-0.51-1.638c-0.103-0.499-0.323-1.243-0.085-1.5c1.151-1.234,0.854-2.727,0.707-4.064
			c-0.329-3.009,0.891-5.215,3.06-7.088c0.599-0.518,1.127-1.115,1.634-1.622c-0.858-0.67-1.809-1.261-2.546-2.051
			c-0.371-0.397-0.683-1.365-0.458-1.716c1.153-1.803,0.518-4.246,2.239-5.848c0.488-0.453,0.829-1.314,0.838-1.994
			c0.034-2.71,1.668-4.915,2.216-7.413c1.057-4.824,3.714-9.127,4.298-14.131c0.16-1.374,0.775-3.022,2.118-4.297
			c1.161-1.102,2.563-2.45,2.536-4.452c-0.017-1.249-0.37-2.573,0.896-3.603c1-0.813,0.963-2.519,2.757-2.84
			c0.74-0.135,1.665-1.438,1.778-2.305c0.14-1.075,0.669-1.676,1.341-2.237c0.944-0.788,1.366-1.373,0.087-2.304
			c-0.6-0.437-0.841-3.962-0.667-5.095c0.054-0.348,0.126-0.803-0.04-1.059c-1.515-2.325-2.584-5.216-5.088-6.518
			c-3.571-1.854-7.16-3.938-11.396-4.069C151.076,524.101,150.562,523.688,150.172,523.688L150.172,523.688z"/>
	</g>
	<g>
		<path style="fill:none;stroke:#111111;stroke-width:5;stroke-miterlimit:10;" d="M454.816,539.133
			c-1.66,0-3.326,0.349-4.978,1.229c-1.508,0.806-3.104,1.447-4.605,2.266c-1.41,0.767-2.854,1.535-4.089,2.54
			c-1.428,1.16-2.837,2.443-3.896,3.929c-1.027,1.44-2.71,2.178-3.605,3.583c-1.982,3.115-4.361,5.982-5.683,9.527
			c-1.393,3.741-1.88,8.477-0.035,11.737c0.521,0.916,0.498,1.731,0.447,2.585c-0.138,2.337,0.448,4.445,1.415,6.562
			c1.014,2.216,2.236,4.519,2.46,6.868c0.324,3.41,1.367,6.651,1.866,10.009c0.231,1.567,0.016,3.496,0.842,4.737
			c1.411,2.119,1.417,4.293,1.337,7.693c-0.056,1.157,0.501,3.533-1.253,5.505c-0.283,0.316-0.211,0.957-0.291,1.45
			c-0.334,2.048-2.72,8.483-3.666,9.574c-2.115,2.441-4.237,4.881-6.447,7.235c-2.879,3.068-6.381,5.196-10.399,6.448
			c-1.059,0.328-2.271,0.351-3.19,0.892c-0.587,0.344-1.128,0.479-1.64,0.479c-1.177,0-2.19-0.725-3.218-1.308
			c-0.775-0.438-1.23-1.44-2.004-1.888c-1.586-0.913-3.234-2.062-4.959-2.27c-0.093-0.011-0.188-0.017-0.287-0.017
			c-1.229,0-2.896,0.823-3.57,1.78c-0.854,1.208-1.418,3.333-0.932,4.61c0.802,2.106,0.358,5.001,3.286,6.183
			c0.747,0.303,0.806,2.031,1.49,2.844c0.704,0.834,1.878,1.255,2.681,2.028c0.742,0.715,1.925,0.772,2.328,2.135
			c0.293,0.988,1.458,2.122,2.46,2.415c2.479,0.723,4.816,1.842,7.321,2.427c0.087,0.021,0.179,0.029,0.274,0.029
			c0.484,0,1.055-0.239,1.491-0.48c1.122-0.622,3.829-1.868,4.715-1.868c0.019,0,0.035,0.002,0.053,0.003
			c0.115,0.008,0.228,0.011,0.339,0.011c1.613,0,2.865-0.757,4.125-1.729c0.853-0.657,1.953-0.995,2.943-1.477
			c0.262,0.438,0.521,0.586,0.78,0.586c0.538,0,1.077-0.635,1.639-0.635c0.033,0,0.066,0.002,0.101,0.007
			c0.378,0.055,0.761,0.071,1.146,0.071c0.561,0,1.125-0.034,1.687-0.034c0.243,0,0.485,0.006,0.727,0.023
			c0.093,0.008,0.185,0.012,0.273,0.012c1.108,0,1.911-0.548,1.979-1.591c0.087-1.394,0.652-1.967,1.893-2.463
			c1.13-0.452,2.075-1.371,3.091-2.1c0.213-0.151,0.378-0.368,0.564-0.555c-0.288-0.154-0.562-0.371-0.868-0.45
			c-0.1-0.025-0.209-0.032-0.322-0.032c-0.126,0-0.256,0.009-0.381,0.009c-0.391,0-0.73-0.082-0.729-0.755
			c0.003-0.698-0.152-1.225,0.933-1.725c1.763-0.812,2.897-2.748,5.044-3.175c0.461-0.093,1.17-1.033,1.082-1.436
			c-0.395-1.791,0.779-2.314,1.925-3.177c1.414-1.063,2.956-2.31,3.335-4.117c0.368-1.748,1.296-3.206,1.821-4.798
			c0.593-1.788,1.399-3.229,2.736-4.417c1.442-1.282,1.995-2.624,0.784-4.367c-0.181-0.261-0.269-0.899-0.115-1.028
			c1.357-1.155-0.036-3.109,0.884-3.966c1.706-1.586-1.147-2.547-0.195-3.831c-0.688-3.453-2.147-6.787-1.612-10.429
			c-1.77-1.126-0.158-3.136-1.288-4.655c-0.873-1.174-0.715-3.097-1.082-4.671c-0.138-0.585-0.319-1.303-0.738-1.646
			c-0.846-0.695-0.911-1.519-0.831-2.455c0.207-2.451-0.936-4.65-1.292-6.975c-0.444-2.88-0.833-5.838,0.298-8.769
			c1.444-3.747,3.8-7.238,6.725-9.019c1.665-1.015,3.413-2.067,5.269-2.534c0.207-0.053,0.421-0.074,0.642-0.074
			c1.061,0,2.256,0.521,3.36,0.77c0.797,0.181,1.725,0.731,2.404,0.731c0.138,0,0.267-0.022,0.381-0.076
			c0.65-0.304,0.586-1.907,1.232-2.519c0.944-0.89,1.193-2.149,0.726-2.804c-0.871-1.213-0.253-2.302,0.238-2.876
			c0.844-0.982,0.555-1.949,0.623-2.94c0.015-0.2-0.269-0.406-0.367-0.63c-2.366-5.388-6.016-9.584-11.648-11.569
			C458.837,539.646,456.832,539.133,454.816,539.133L454.816,539.133z"/>
	</g>
	<g>
		<path style="fill:none;stroke:#111111;stroke-width:5;stroke-miterlimit:10;" d="M498.058,608.217
			c-5.417,0-10.28,1.617-14.844,4.694c-2.447,1.65-4.311,3.803-5.487,6.19c-1.352,2.743-2.522,5.859-1.727,8.541
			c0,1.151,0.073,1.691-0.012,2.204c-0.586,3.552,1.142,5.964,3.377,8.558c1.534,1.779,3.516,1.223,5.124,2.219
			c0.293,0.182,0.658,0.247,1.064,0.247c0.938,0,2.093-0.353,3.068-0.459c0.582-0.065,1.156-0.426,1.721-0.426
			c0.021,0,0.043,0.001,0.064,0.002c0.149,0.007,0.301,0.011,0.449,0.011c2.423,0,4.562-0.938,6.604-2.105
			c1.174-0.671,2.25-1.552,3.262-2.458c1.275-1.143,2.353-2.515,3.671-3.596c2.148-1.759,2.856-4.393,4.016-6.673
			c0.861-1.697,1.256-4.107,0.768-5.903c-0.724-2.655-0.939-5.478-2.918-7.915c-2.284-2.815-1.913-3.117-5.184-3.121
			c-0.021,0-0.042,0-0.062,0c-0.494,0-0.988,0.008-1.482,0.008c-0.276,0-0.553-0.002-0.828-0.01
			C498.485,608.22,498.271,608.217,498.058,608.217L498.058,608.217z"/>
	</g>
</g>
</svg>
