<svg xmlns="http://www.w3.org/2000/svg" viewBox="0 0 20.57 20.57"><defs><style>.cls-1{fill:#76c8a8;fill-rule:evenodd;}</style></defs><title>Asset 2</title><g id="Layer_2" data-name="Layer 2"><g id="Facebook"><path id="Facebook_Prime" data-name="Facebook Prime" class="cls-1" d="M19.44,1.13A3.72,3.72,0,0,0,16.72,0H3.86A3.75,3.75,0,0,0,1.13,1.13,3.75,3.75,0,0,0,0,3.86V16.72a3.72,3.72,0,0,0,1.13,2.72,3.72,3.72,0,0,0,2.73,1.13H11v-8H8.31V9.5H11V7.21a4.05,4.05,0,0,1,1.1-3A4,4,0,0,1,15,3.11a18,18,0,0,1,2.38.12V6L15.74,6a1.57,1.57,0,0,0-1.23.37,1.73,1.73,0,0,0-.31,1.13v2h3.06l-.4,3.11H14.2v8h2.52a3.86,3.86,0,0,0,3.85-3.85V3.86A3.72,3.72,0,0,0,19.44,1.13Z"/></g></g></svg>