<svg xmlns="http://www.w3.org/2000/svg" viewBox="0 0 20.57 20.57"><defs><style>.cls-1{fill:#76c8a8;}</style></defs><title>Asset 6</title><g id="Layer_2" data-name="Layer 2"><g id="Inst"><g id="Insta_Prime" data-name="Insta Prime"><path class="cls-1" d="M10.29,5A5.26,5.26,0,0,0,5,10.29a5.26,5.26,0,0,0,5.28,5.28,5.26,5.26,0,0,0,5.28-5.28A5.26,5.26,0,0,0,10.29,5Zm2.42,7.7a3.3,3.3,0,0,1-2.42,1,3.43,3.43,0,0,1-3.43-3.43,3.43,3.43,0,0,1,3.43-3.43,3.43,3.43,0,0,1,3.43,3.43A3.3,3.3,0,0,1,12.71,12.71Z"/><path class="cls-1" d="M15.78,3.56a1.23,1.23,0,0,0-1.23,1.23,1.23,1.23,0,1,0,2.1-.87A1.19,1.19,0,0,0,15.78,3.56Z"/><path class="cls-1" d="M18.84,1.73A6.28,6.28,0,0,0,14.53.07Q13.35,0,10.29,0T6,.07A6.28,6.28,0,0,0,1.73,1.73,6.28,6.28,0,0,0,.07,6Q0,7.22,0,10.29t.07,4.25a6.28,6.28,0,0,0,1.66,4.31A6.28,6.28,0,0,0,6,20.5q1.18.07,4.25.07t4.25-.07a6.28,6.28,0,0,0,4.31-1.66,6.28,6.28,0,0,0,1.66-4.31q.07-1.18.07-4.25T20.5,6A6.28,6.28,0,0,0,18.84,1.73Zm-.11,9.58q0,.93,0,1.41t0,1.29a10.62,10.62,0,0,1-.13,1.38,5.37,5.37,0,0,1-.25,1,3.51,3.51,0,0,1-2,2,5.37,5.37,0,0,1-1,.25,10.62,10.62,0,0,1-1.38.13l-1.29,0H7.85l-1.29,0a10.62,10.62,0,0,1-1.38-.13,5.38,5.38,0,0,1-1-.25,3.51,3.51,0,0,1-2-2,5.37,5.37,0,0,1-.25-1A10.62,10.62,0,0,1,1.88,14q0-.81,0-1.29t0-1.41q0-.93,0-1t0-1q0-.93,0-1.41t0-1.29A10.62,10.62,0,0,1,2,5.18a5.37,5.37,0,0,1,.25-1,3.51,3.51,0,0,1,2-2,5.37,5.37,0,0,1,1-.25,10.61,10.61,0,0,1,1.38-.13l1.29,0h4.88l1.29,0A10.61,10.61,0,0,1,15.4,2a5.37,5.37,0,0,1,1,.25,3.51,3.51,0,0,1,2,2,5.37,5.37,0,0,1,.25,1,10.62,10.62,0,0,1,.13,1.38q0,.81,0,1.29t0,1.41q0,.93,0,1T18.73,11.31Z"/></g></g></g></svg>