<svg class="social" xmlns="http://www.w3.org/2000/svg" viewBox="0 0 21.11 17.14"><defs><style>.cls-1{fill:#76c8a8;fill-rule:evenodd;}</style></defs><title>Asset 9</title><g id="Layer_2" data-name="Layer 2"><g id="Twitter"><path id="Twitter_Prime" data-name="Twitter Prime" class="cls-1" d="M21.11,2a8.55,8.55,0,0,1-2.49.67A4.16,4.16,0,0,0,20.52.32a8.27,8.27,0,0,1-2.75,1A4.16,4.16,0,0,0,14.61,0a4.2,4.2,0,0,0-3.06,1.26,4.2,4.2,0,0,0-1.26,3.06,4.89,4.89,0,0,0,.1,1A12.06,12.06,0,0,1,5.42,4,12.24,12.24,0,0,1,1.48.79,4.15,4.15,0,0,0,.89,3,4.18,4.18,0,0,0,1.41,5a4.33,4.33,0,0,0,1.4,1.54A4.21,4.21,0,0,1,.86,6v.06a4.21,4.21,0,0,0,1,2.75,4.25,4.25,0,0,0,2.49,1.49,4.46,4.46,0,0,1-1.14.15,5,5,0,0,1-.82-.07A4.26,4.26,0,0,0,3.9,12.54a4.15,4.15,0,0,0,2.52.86,8.42,8.42,0,0,1-5.37,1.85c-.39,0-.74,0-1.05,0a12.07,12.07,0,0,0,6.65,1.94A12.56,12.56,0,0,0,11,16.41a11.07,11.07,0,0,0,3.46-2,13,13,0,0,0,2.47-2.81,12.84,12.84,0,0,0,1.54-3.33A12.32,12.32,0,0,0,19,4.83c0-.25,0-.44,0-.56A9.06,9.06,0,0,0,21.11,2Z"/></g></g></svg>
