<?xml version="1.0" encoding="utf-8"?>
<!-- Generator: Adobe Illustrator 21.1.0, SVG Export Plug-In . SVG Version: 6.00 Build 0)  -->
<svg version="1.1" id="Layer_1" xmlns="http://www.w3.org/2000/svg" xmlns:xlink="http://www.w3.org/1999/xlink" x="0px" y="0px"
	 viewBox="0 0 693.4 566.3" style="enable-background:new 0 0 693.4 566.3;" xml:space="preserve">
<style type="text/css">
	.st0{clip-path:url(#SVGID_2_);}
	.st1{clip-path:url(#SVGID_4_);fill:#1C0E0E;}
	.st2{clip-path:url(#SVGID_6_);}
	.st3{clip-path:url(#SVGID_8_);fill:#76C8A8;}
	.st4{clip-path:url(#SVGID_10_);}
	.st5{clip-path:url(#SVGID_12_);fill:#1C0E0E;}
	.st6{clip-path:url(#SVGID_14_);}
	.st7{fill:#FFFFFF;}
	.st8{font-family:'Espa';}
	.st9{font-size:48px;}
	.st10{clip-path:url(#SVGID_14_);fill:none;stroke:#1C0E0E;stroke-width:7;stroke-linecap:round;stroke-miterlimit:10;}
</style>
<title>Rectangle 2</title>
<desc>Created with Sketch.</desc>
<g>
	<defs>
		<path id="SVGID_1_" d="M63.1,297.8L228,86.8c0.6-0.8,1.7-1,2.6-0.5l353,208.7c0.9,0.5,1.2,1.7,0.7,2.7L463.7,525.1
			c-0.5,1-1.7,1.3-2.7,0.8c0,0,0,0,0,0L63.7,300.8c-1-0.5-1.3-1.8-0.8-2.7C63,298,63.1,297.9,63.1,297.8z"/>
	</defs>
	<clipPath id="SVGID_2_">
		<use xlink:href="#SVGID_1_"  style="overflow:visible;"/>
	</clipPath>
	<g class="st0">
		<defs>
			<rect id="SVGID_3_" x="-389.3" y="-204.6" width="1440" height="1024"/>
		</defs>
		<clipPath id="SVGID_4_">
			<use xlink:href="#SVGID_3_"  style="overflow:visible;"/>
		</clipPath>
		
			<rect x="174" y="78.9" transform="matrix(0.6157 -0.788 0.788 0.6157 -114.4355 388.7872)" class="st1" width="334.6" height="465.6"/>
	</g>
</g>
<g>
	<defs>
		<path id="SVGID_5_" d="M59.6,295.9L177,55.2c0.5-1,1.7-1.4,2.7-0.9l422.1,205.9c1,0.5,1.4,1.7,0.9,2.7L485.3,503.5
			c-0.5,1-1.7,1.4-2.7,0.9L60.5,298.6C59.5,298.1,59.1,296.9,59.6,295.9z"/>
	</defs>
	<clipPath id="SVGID_6_">
		<use xlink:href="#SVGID_5_"  style="overflow:visible;"/>
	</clipPath>
	<g class="st2">
		<defs>
			<rect id="SVGID_7_" x="-389.3" y="-204.6" width="1440" height="1024"/>
		</defs>
		<clipPath id="SVGID_8_">
			<use xlink:href="#SVGID_7_"  style="overflow:visible;"/>
		</clipPath>
		
			<rect x="190.2" y="37.6" transform="matrix(0.4384 -0.8988 0.8988 0.4384 -65.1062 454.5185)" class="st3" width="281.9" height="483.6"/>
	</g>
</g>
<g>
	<defs>
		<circle id="SVGID_9_" cx="157.2" cy="192.9" r="13.5"/>
	</defs>
	<clipPath id="SVGID_10_">
		<use xlink:href="#SVGID_9_"  style="overflow:visible;"/>
	</clipPath>
	<g class="st4">
		<defs>
			<rect id="SVGID_11_" x="-389.3" y="-204.6" width="1440" height="1024"/>
		</defs>
		<clipPath id="SVGID_12_">
			<use xlink:href="#SVGID_11_"  style="overflow:visible;"/>
		</clipPath>
		<rect x="138.7" y="174.4" class="st5" width="37" height="37"/>
	</g>
</g>
<g>
	<defs>
		<rect id="SVGID_13_" x="-389.3" y="-204.6" width="1440" height="1024"/>
	</defs>
	<clipPath id="SVGID_14_">
		<use xlink:href="#SVGID_13_"  style="overflow:visible;"/>
	</clipPath>
	<g class="st6">
		<text transform="matrix(0.8988 0.4384 -0.4384 0.8988 274.9772 228.7309)" class="st7 st8 st9">197.25 kr</text>
	</g>
	<g class="st6">
		<text transform="matrix(0.8988 0.4384 -0.4384 0.8988 237.9772 303.7309)" class="st7 st8 st9">200 kr</text>
	</g>
	<line class="st10" x1="256.7" y1="238.4" x2="424" y2="238.4"/>
	<line class="st10" x1="288.7" y1="172.4" x2="391.8" y2="304.2"/>
</g>
</svg>
