<?xml version="1.0" encoding="utf-8"?>
<!-- Generator: Adobe Illustrator 21.1.0, SVG Export Plug-In . SVG Version: 6.00 Build 0)  -->
<svg version="1.1" xmlns="http://www.w3.org/2000/svg" xmlns:xlink="http://www.w3.org/1999/xlink" x="0px" y="0px"
	 viewBox="0 0 1920 1080" style="enable-background:new 0 0 1920 1080;" xml:space="preserve">
<style type="text/css">
	.st0{fill:#FFFFFF;}
	.st1{fill:none;stroke:#353434;stroke-width:38.0835;stroke-miterlimit:10;}
	.st2{fill:none;stroke:#FFFFFF;stroke-width:38.5025;stroke-linecap:round;stroke-miterlimit:10;}
	.st3{fill:none;stroke:#FFFFFF;stroke-width:66.6461;stroke-miterlimit:10;}
	.st4{fill:#76C8A8;}
	.st5{fill:none;stroke:#FFFFFF;stroke-width:19.0417;stroke-linecap:round;stroke-miterlimit:10;}
	.st6{fill:none;stroke:#76C8A8;stroke-width:15.2334;stroke-linecap:round;stroke-miterlimit:10;}
	.st7{fill:#76C8A8;stroke:#76C8A8;stroke-width:15.2334;stroke-linecap:round;stroke-miterlimit:10;}
	.st8{fill-rule:evenodd;clip-rule:evenodd;fill:#76C8A8;}
</style>
<g id="Tunna">
	<rect x="680" y="477.4" class="st0" width="356.8" height="182.4"/>
	<polygon class="st0" points="1237.8,137.1 1238.1,686.3 1025,689.6 1025,617.5 814.4,617.5 814.4,689.6 626.1,686.4 626.3,137.6 	
		"/>
	<path class="st1" d="M1250.3,142"/>
	<line class="st2" x1="697.6" y1="667.6" x2="1099.3" y2="667.6"/>
	<path class="st3" d="M1229.1,139.2"/>
	<path class="st3" d="M578.6,137.3"/>
	<ellipse class="st0" cx="630.4" cy="412.3" rx="89" ry="274.8"/>
	<ellipse class="st0" cx="1236.7" cy="412.3" rx="89" ry="274.8"/>
	<path class="st0" d="M1264.7,650.7c5.6-0.5,11.3-0.8,16.9-0.9c-0.6,1-1.1,2-1.7,2.9C1274.8,652.1,1269.7,651.4,1264.7,650.7z"/>
</g>
<g id="Droppe">
	<g>
		<path class="st4" d="M1047.2,484.9c0,63.7-41.7,117.7-99.4,136.1c-13.7,4.4-28.3,6.7-43.5,6.7c-15.2,0-29.8-2.4-43.5-6.7
			c-57.6-18.4-99.4-72.4-99.4-136.1c0-30.4,9.5-58.5,25.7-81.7l117.1-202.9l117.2,203.1C1037.8,426.5,1047.2,454.6,1047.2,484.9z"/>
		<path class="st5" d="M790.7,501.7c0,0,6.2,58.6,64.8,86.4"/>
	</g>
</g>
<g id="Layer_5">
	<path class="st6" d="M1219.8,680.4c0,0-142.6-206.8-20.6-499.1"/>
</g>
<g id="Layer_4">
	<path class="st7" d="M1152.8,367.3c0,0,139.9,0,181.9,173.5c0,0,40.2,128.6,188.8,151.6l-282.7,0.5c0,0-90.2-36.9-89-301.4
		c0,0,0.4-11.5,1.8-29.7"/>
</g>
<g id="Layer_7">
	<path class="st7" d="M1221.6,677.2c0,0-69.3-87.1-63.3-316.7c0,0,197.9,326.6,368.1,328.6L1221.6,677.2z"/>
</g>
<g id="Layer_6">
	<path class="st7" d="M1152.3,373.5c0,0-17.8,180.1,67.3,308.8l316.7,11.9C1536.3,694.1,1140.4,662.4,1152.3,373.5z"/>
</g>
<g id="Layer_1">
	<g>
		<path class="st4" d="M1555.2,754.9H258.5c-21,0-38.1-15.4-38.1-34.3c0-19,17.1-34.3,38.1-34.3h1296.7c21,0,38.1,15.4,38.1,34.3
			C1593.3,739.6,1576.2,754.9,1555.2,754.9z"/>
	</g>
	<g>
		<path class="st4" d="M918.5,671.7c-3-5.2-4.6-11.4-4.6-17.9c0-13.7,7.4-25.5,18.2-31.5v-1.3c-9.3,2.3-19,3.5-28.9,3.5
			c-12.4,0-24.5-1.9-35.8-5.3v1.1c1.3,0.5,2.6,1.1,3.8,1.7v-1.2v1.2c11.3,5.8,19.1,17.9,19.1,31.9c0,6.5-1.7,12.7-4.6,17.9
			c-4.8,8.5-12.8,14.8-22.4,16.9h77.8C931.3,686.5,923.3,680.2,918.5,671.7z"/>
	</g>
</g>
<g id="Layer_8">
	<g>
		<path class="st4" d="M1309.8,857.9c0,18.9-17,34.2-38.1,34.2H801.4c-21,0-38.1-15.3-38.1-34.2s17-34.2,38.1-34.2h470.3
			C1292.8,823.7,1309.8,839,1309.8,857.9z"/>
	</g>
	<g>
		<path class="st8" d="M1182.7,745.7v8.7h-1.7c-18.9,0-34.2,15.6-34.2,34.8s15.3,34.8,34.2,34.8h1.7v12.2H957.1V824
			c18.9,0,34.2-15.6,34.2-34.8s-15.3-34.8-34.2-34.8v-8.7H1182.7z"/>
	</g>
</g>
</svg>
